<?xml version="1.0" encoding="UTF-8"?>
<svg id="Layer_1" data-name="Layer 1" xmlns="http://www.w3.org/2000/svg" viewBox="0 0 137 81">
  <defs>
    <style>
      .cls-1 {
        fill: #f8f3e6;
      }

      .cls-2 {
        opacity: .55;
      }
    </style>
  </defs>
  <g class="cls-2">
    <g>
      <path class="cls-1" d="M0,39.88C0,15.81,13.24,0,33.99,0s33.66,15.81,33.66,39.83-13.1,39.88-33.66,39.88S0,63.89,0,39.88Zm47.28,.05c0-12.39-5.17-20.65-13.48-20.65s-13.53,8.21-13.53,20.55,5.22,20.51,13.58,20.51,13.43-8.16,13.43-20.41Z"/>
      <path class="cls-1" d="M135.67,59.48v18.66h-61.38v-7.36c29.05-24.35,40.06-34.94,40.06-42.06,0-5.13-3.99-9.54-9.07-9.54-6.74,0-12.72,5.6-12.72,12.48l-16.52-5.46c0-13.86,13.01-26.2,29.29-26.2s29.43,12.86,29.43,27.91c0,12.53-10.78,24.59-23.36,31.57h24.26Z"/>
    </g>
  </g>
</svg>