<?xml version="1.0" encoding="UTF-8"?>
<svg id="Layer_1" data-name="Layer 1" xmlns="http://www.w3.org/2000/svg" viewBox="0 0 132 81">
  <defs>
    <style>
      .cls-1 {
        fill: #f8f3e6;
      }

      .cls-2 {
        opacity: .55;
      }
    </style>
  </defs>
  <g class="cls-2">
    <g>
      <path class="cls-1" d="M0,40.68C0,16.61,13.24,.81,33.99,.81s33.66,15.81,33.66,39.83-13.1,39.88-33.66,39.88S0,64.7,0,40.68Zm47.28,.05c0-12.39-5.17-20.65-13.48-20.65s-13.53,8.21-13.53,20.55,5.22,20.51,13.58,20.51,13.43-8.16,13.43-20.41Z"/>
      <path class="cls-1" d="M129.88,55.35c0,14.62-12.82,24.78-27.77,24.78s-26.01-10.02-27.82-21.55l16.9-4.04c1.38,4.37,5.84,6.6,9.78,6.6,4.98,0,8.35-3.51,8.35-8.35,0-6.08-5.74-11.63-17.37-11.72l2.33-9.02c7.31,0,11.63-3.75,11.63-8.21,0-3.37-2.42-5.79-5.6-5.79-2.71,0-5.22,1.76-6.36,4.98l-16.9-3.7C79.75,8.21,88.91,0,101.68,0s23.92,8.78,23.92,20.55c0,6.36-3.28,12.29-8.69,14.81,7.36,3.04,12.96,10.4,12.96,19.98Z"/>
    </g>
  </g>
</svg>