<?xml version="1.0" encoding="UTF-8"?>
<svg id="Layer_1" data-name="Layer 1" xmlns="http://www.w3.org/2000/svg" xmlns:xlink="http://www.w3.org/1999/xlink" viewBox="0 0 169 660.5">
  <defs>
    <style>
      .cls-1 {
        fill: #f8f3e6;
      }

      .cls-2 {
        opacity: .1;
      }

      .cls-3 {
        clip-path: url(#clippath);
      }

      .cls-4 {
        fill: none;
      }
    </style>
    <clipPath id="clippath">
      <rect class="cls-4" width="169" height="661"/>
    </clipPath>
  </defs>
  <g class="cls-3">
    <g class="cls-2">
      <g>
        <path class="cls-1" d="M118.75,34.27c-11.55,0-22.29-9.69-22.29-24.33V-21.23h73.03V2.78c0,13.23-8.92,22.92-18.98,22.92-7.52,0-12.91-4.98-12.91-7.97,0,7.79-7.84,16.54-18.85,16.54Zm2.31-18.57c4.26,0,6.84-3.08,6.84-8.56l.04-9.69h-13.86V6.99c0,4.44,2.17,8.7,6.98,8.7Zm31.58-13.5V-2.56h-11.46V2.06c0,4.21,2.08,7.38,5.84,7.38,3.53,0,5.62-3.08,5.62-7.25Z"/>
        <path class="cls-1" d="M104.98,87.94v-27.27l-8.52-3.71v-21.2l73.94,33.93v9.2l-73.94,33.98v-21.25l8.52-3.67Zm14.18-6.16l17.31-7.47-17.31-7.52v15Z"/>
        <path class="cls-1" d="M169.58,183.25H95.73v-6.16l36.38-37.56h-35.7v-19.39h73.8v6.25l-36.24,37.42h35.61v19.44Z"/>
        <path class="cls-1" d="M131.3,299.31c-22.2,0-36.56-16.76-36.56-37.51,0-23.2,17.31-40.73,38.15-40.73s38.37,17.58,38.37,40.23c-.14,9.29-4.08,20.03-9.65,26.05l-14.72-10.74c3.81-4.08,6.25-9.92,6.25-15.31,0-10.87-8.92-20.43-20.21-20.43-10.24,0-20.21,8.2-20.21,21.7,0,8.83,4.26,15.13,11.24,15.4v-16.72h14.45v37.47c-2.45,.36-4.8,.59-7.11,.59Z"/>
        <path class="cls-1" d="M123.01,308.18h46.48v19.53h-46.44c-6.07,0-10.1,5.21-10.1,10.74s4.12,10.83,10.1,10.83h46.44v19.53h-46.48c-16.76,0-28.59-13.59-28.59-30.31s11.82-30.31,28.59-30.31Z"/>
        <path class="cls-1" d="M169.58,443.94H95.73v-6.16l36.38-37.56h-35.7v-19.39h73.8v6.25l-36.24,37.42h35.61v19.44Z"/>
        <path class="cls-1" d="M108.83,452.81l11.51,11.73c-4.49,3.04-7.2,8.7-7.2,14.81,0,4.12,1.5,8.15,4.48,8.15,3.76,0,7.07-7.47,10.24-14.63,3.99-9.24,10.06-17.17,21.07-17.17,12.64,0,21.66,12,21.66,25.87,0,11.14-5.25,19.84-12.46,22.7l-10.78-11.19c3.85-2.18,5.53-7.79,5.53-11.28,0-3.99-2.04-6.84-4.53-6.84-3.35,0-4.44,5.16-7.75,13.05-4.8,11.42-11.78,18.98-22.56,18.98-13.91,0-22.56-12.96-22.56-27.59,0-12.01,5.3-22.92,13.37-26.59Z"/>
      </g>
      <g>
        <path class="cls-1" d="M118.75,610.27c-11.55,0-22.29-9.7-22.29-24.33v-31.17h73.03v24.01c0,13.23-8.92,22.92-18.98,22.92-7.52,0-12.91-4.98-12.91-7.97,0,7.79-7.84,16.54-18.85,16.54Zm2.31-18.57c4.26,0,6.84-3.08,6.84-8.56l.04-9.7h-13.86v9.56c0,4.44,2.17,8.7,6.98,8.7Zm31.58-13.5v-4.76h-11.46v4.62c0,4.21,2.08,7.38,5.84,7.38,3.53,0,5.62-3.08,5.62-7.25Z"/>
        <path class="cls-1" d="M104.98,663.94v-27.27l-8.52-3.71v-21.2l73.94,33.93v9.2l-73.94,33.98v-21.25l8.52-3.67Zm14.18-6.16l17.31-7.47-17.31-7.52v15Z"/>
      </g>
      <g>
        <path class="cls-1" d="M22.75,368.27c-11.55,0-22.29-9.7-22.29-24.33v-31.17H73.49v24.01c0,13.23-8.92,22.92-18.98,22.92-7.52,0-12.91-4.98-12.91-7.97,0,7.79-7.84,16.54-18.85,16.54Zm2.31-18.57c4.26,0,6.84-3.08,6.84-8.56l.04-9.7h-13.86v9.56c0,4.44,2.17,8.7,6.98,8.7Zm31.58-13.5v-4.76h-11.46v4.62c0,4.21,2.08,7.38,5.84,7.38,3.53,0,5.62-3.08,5.62-7.25Z"/>
        <path class="cls-1" d="M8.98,421.94v-27.27l-8.52-3.71v-21.2l73.94,33.93v9.2L.46,446.86v-21.25l8.52-3.67Zm14.18-6.16l17.31-7.47-17.31-7.52v15Z"/>
        <path class="cls-1" d="M73.58,517.25H-.27v-6.16l36.38-37.56H.41v-19.39H74.21v6.25l-36.24,37.42h35.61v19.44Z"/>
        <path class="cls-1" d="M35.3,633.31c-22.2,0-36.56-16.76-36.56-37.51,0-23.2,17.31-40.73,38.15-40.73s38.37,17.58,38.37,40.23c-.14,9.29-4.08,20.03-9.65,26.05l-14.72-10.74c3.81-4.08,6.25-9.92,6.25-15.31,0-10.87-8.92-20.43-20.21-20.43-10.24,0-20.21,8.2-20.21,21.7,0,8.83,4.26,15.13,11.24,15.4v-16.72h14.45v37.47c-2.45,.36-4.8,.59-7.11,.59Z"/>
        <path class="cls-1" d="M27.01,642.18h46.48v19.53H27.05c-6.07,0-10.1,5.21-10.1,10.74s4.12,10.83,10.1,10.83h46.44v19.53H27.01c-16.76,0-28.59-13.59-28.59-30.31s11.82-30.31,28.59-30.31Z"/>
      </g>
      <g>
        <path class="cls-1" d="M35.3,61.31C13.1,61.31-1.26,44.54-1.26,23.8-1.26,.6,16.04-16.93,36.88-16.93S75.25,.65,75.25,23.3c-.14,9.29-4.08,20.02-9.65,26.05l-14.72-10.74c3.81-4.08,6.25-9.92,6.25-15.31,0-10.87-8.92-20.43-20.21-20.43-10.24,0-20.21,8.2-20.21,21.7,0,8.83,4.26,15.13,11.24,15.4V23.25h14.45V60.72c-2.45,.36-4.8,.59-7.11,.59Z"/>
        <path class="cls-1" d="M27.01,70.18h46.48v19.53H27.05c-6.07,0-10.1,5.21-10.1,10.74s4.12,10.83,10.1,10.83h46.44v19.53H27.01c-16.76,0-28.59-13.59-28.59-30.31s11.82-30.31,28.59-30.31Z"/>
        <path class="cls-1" d="M73.58,205.94H-.27v-6.16l36.38-37.56H.41v-19.39H74.21v6.25l-36.24,37.42h35.61v19.44Z"/>
        <path class="cls-1" d="M12.83,214.81l11.51,11.73c-4.49,3.04-7.2,8.7-7.2,14.81,0,4.12,1.5,8.15,4.48,8.15,3.76,0,7.07-7.47,10.24-14.63,3.99-9.24,10.06-17.17,21.07-17.17,12.64,0,21.66,12,21.66,25.87,0,11.14-5.25,19.84-12.46,22.7l-10.78-11.19c3.85-2.18,5.53-7.79,5.53-11.28,0-3.99-2.04-6.84-4.53-6.84-3.35,0-4.44,5.16-7.75,13.05-4.8,11.42-11.78,18.98-22.56,18.98-13.91,0-22.56-12.96-22.56-27.59,0-12.01,5.3-22.92,13.37-26.59Z"/>
      </g>
    </g>
  </g>
</svg>