<?xml version="1.0" encoding="UTF-8"?>
<svg id="Layer_1" data-name="Layer 1" xmlns="http://www.w3.org/2000/svg" viewBox="0 0 20 59">
  <defs>
    <style>
      .cls-1 {
        fill: #fff;
      }

      .cls-2 {
        fill: #bc2c3d;
      }
    </style>
  </defs>
  <path class="cls-1" d="M18.19,52.13H1.3V15.76H18.19V52.13ZM13.88,16.77V51.08h3.31V16.77h-3.31Zm-11.54-.02V51.18c.52-.02,.91-.04,1.36-.06V16.75h-1.36ZM11.67,51.31c.12-.13,.23-.26,.35-.4V16.83c-1.29-.41-1.23,.38-1.23,1.13,0,10.64,0,21.28,0,31.92,0,.15-.06,.35,.02,.45,.26,.35,.57,.66,.86,.99Zm-5.2-.3c-.42-8.21-.83-16.32-1.24-24.43-.14,7.89-.14,15.77-.15,23.66,0,1.01,.47,1.08,1.39,.77Z"/>
  <path class="cls-1" d="M18.27,14.45H1.27c.04-.79,0-1.58,.13-2.35,.52-3.17,1.75-6.04,3.78-8.55,2.55-3.16,6.48-3.2,9.01-.06,2.53,3.14,3.96,6.7,4.08,10.96Zm-1.05-1.02c-.47-3.78-1.81-6.92-4.17-9.58-.58-.65-1.45-1.1-2.27-1.45-.92-.39-1.62-.06-2,.98-1.14,3.12-.94,6.2,.19,9.25,.12,.33,.6,.75,.92,.75,2.38,.06,4.77,.03,7.33,.03Zm-15.14-.33c.19,.16,.38,.31,.57,.47,.37-.25,1.02-.45,1.07-.75,.35-2.08,.57-4.18,.83-6.28-.1-.03-.2-.07-.3-.1-.72,2.22-1.45,4.43-2.17,6.65Z"/>
  <path class="cls-1" d="M18.19,56.22v1.42H1.28c-.03-.45-.05-.88-.08-1.42H18.19Z"/>
  <path class="cls-1" d="M16.06,53.46v1.42H3.42c-.03-.45-.06-.88-.09-1.42h12.73Z"/>
  <g>
    <path class="cls-2" d="M11.67,51.31c-.29-.33-.6-.64-.86-.99-.07-.1-.02-.3-.02-.45,0-10.64,0-21.28,0-31.92,0-.75-.06-1.54,1.23-1.13V50.91c-.12,.13-.23,.26-.35,.4Z"/>
    <g>
      <path class="cls-2" d="M17.41,53.39v1.31c.15,.09,.23,.15,.32,.18,.55,.17,1.53,.26,1.57,.51,.16,1.03,.09,2.11-.01,3.16-.01,.14-.69,.32-1.07,.32-5.65,.02-11.31,0-16.96,.03-.96,0-1.29-.39-1.21-1.28,.02-.2,.02-.41,0-.61-.18-1.45,.15-2.45,2.02-2.08v-1.52C.08,53.74,.02,52.58,.02,51.07c.05-12.02,.03-24.04,.03-36.06,0-4.6,1.41-8.71,4.3-12.29,2.86-3.56,7.64-3.66,10.57-.17,2.77,3.3,4.44,7.12,4.47,11.44,.09,12.68,.03,25.36,.1,38.04,0,1.61-1.06,1.27-2.08,1.35Zm.78-1.26V15.76H1.3V52.13H18.19Zm.08-37.68c-.12-4.27-1.55-7.83-4.08-10.96-2.53-3.14-6.46-3.1-9.01,.06C3.16,6.05,1.92,8.92,1.41,12.1c-.13,.77-.09,1.56-.13,2.35H18.27Zm-.08,41.77H1.2c.03,.54,.06,.97,.08,1.42H18.19v-1.42Zm-2.13-2.77H3.33c.04,.54,.06,.97,.09,1.42h12.64v-1.42Z"/>
      <path class="cls-2" d="M13.88,16.77h3.31V51.08h-3.31V16.77Z"/>
      <path class="cls-2" d="M2.34,16.75h1.36V51.12c-.45,.02-.84,.04-1.36,.06V16.75Z"/>
      <path class="cls-2" d="M6.48,51.01c-.92,.31-1.39,.23-1.39-.77,.02-7.89,0-15.77,.15-23.66,.41,8.11,.82,16.23,1.24,24.43Z"/>
      <path class="cls-2" d="M17.22,13.43c-2.57,0-4.95,.03-7.33-.03-.32,0-.8-.42-.92-.75-1.12-3.05-1.33-6.13-.19-9.25,.38-1.05,1.08-1.37,2-.98,.82,.35,1.69,.8,2.27,1.45,2.36,2.65,3.7,5.8,4.17,9.58Z"/>
      <path class="cls-2" d="M2.08,13.1c.72-2.22,1.45-4.43,2.17-6.65,.1,.03,.2,.07,.3,.1-.26,2.09-.48,4.2-.83,6.28-.05,.3-.7,.5-1.07,.75-.19-.16-.38-.31-.57-.47Z"/>
    </g>
  </g>
</svg>