<?xml version="1.0" encoding="utf-8"?>
<!-- Generator: Adobe Illustrator 27.0.0, SVG Export Plug-In . SVG Version: 6.00 Build 0)  -->
<svg version="1.1" id="Layer_1" xmlns="http://www.w3.org/2000/svg" xmlns:xlink="http://www.w3.org/1999/xlink" x="0px" y="0px"
	 viewBox="0 0 659.89 521.57" style="enable-background:new 0 0 659.89 521.57;" xml:space="preserve">
<style type="text/css">
	.st0{fill:#231F20;}
</style>
<g>
	<g>
		<path class="st0" d="M552.61,307.4c2.33,1.42,2.68,3.46,2.07,5.98c-0.62,2.55-1.03,5.17-1.39,7.77c-0.15,1.07,0.08,2.19,0.14,3.28
			c0.3,0.08,0.6,0.15,0.89,0.23c0.93-1.92,1.86-3.84,2.8-5.76c2.63-5.36,6.42-9.62,11.8-12.35c8.33-4.23,21.3,3.07,21.5,12.46
			c0.11,4.99-0.99,10-1.55,15.01c-0.08,0.7-0.17,1.4-0.37,2.98c1.45-1.1,2.33-1.7,3.12-2.4c5.21-4.62,9.11-5.16,15.3-2.32
			c7.16,3.28,9.96,8.92,10.38,16.63c0.4,7.32,1.82,14.59,2.84,21.88c0.45,3.23,2.21,4.63,5.63,4.54c5.97-0.15,10.04,3.02,13,8.05
			c1.97,3.34,4.07,6.65,6.49,9.68c3.85,4.82,5.97,10.26,6.03,16.31c0.07,7.14-0.32,14.29-0.59,21.44
			c-0.35,9.15-0.66,18.3-1.22,27.43c-0.32,5.14-1.06,10.26-1.74,15.37c-1.29,9.76-6.86,17.63-11.87,25.63
			c-4.45,7.11-8.18,14.48-11.02,22.34c-32.32,0-64.63,0-96.95,0c0.67-8.31-2.98-15.3-6.96-22.3c6.45,2.33,11.12,8.08,18.58,8.04
			c-1.36-0.88-2.69-1.82-4.09-2.64c-5.38-3.14-11.02-5.9-16.1-9.47c-5.31-3.72-9.12-9.14-11.69-14.97
			c-3.13-7.11-5.53-14.58-7.73-22.05c-3.46-11.73-6.52-23.59-9.7-35.41c-2.26-8.42-1.78-16.9-0.79-25.46
			c1.44-12.45,2.52-24.95,3.68-37.43c1.28-13.73,0.58-27.4-1.12-41.07c-0.47-3.74-0.29-7.61-0.02-11.39
			c0.31-4.3,2.61-7.63,6.51-9.47c2.92-1.38,6.01-0.66,8.34,1.33c2.13,1.81,3.88,4.16,5.46,6.49c2.82,4.16,5.38,8.5,8.67,12.76
			c0-3.27,0-6.54,0-9.8c0.33-0.14,0.66-0.29,0.99-0.43c1.73,1.82,3.4,3.71,5.21,5.45c1.11,1.07,2.38,2.61,3.69,2.74
			c4.18,0.4,8.44,0.5,12.64,0.24c4.44-0.28,7.63-3.68,8.51-8.26c0.07-0.39,0.41-0.73,0.62-1.09L552.61,307.4z M597.59,381.55
			c1.25,2.88,4.16,3.11,6.21,4.72c0.26-0.46,0.52-0.93,0.78-1.39c-2.32-1.12-4.64-2.24-6.96-3.36c4.23-6.6,8.45-13.2,12.68-19.79
			c-0.42-0.26-0.83-0.53-1.25-0.79c-4.55,6.86-9.1,13.72-13.65,20.58c0.27,0.21,0.53,0.42,0.8,0.63
			C596.66,381.95,597.12,381.75,597.59,381.55z M596.31,356.81c-2.81,0.17-5.63,0.33-8.44,0.5c1.86,1.91,3.94,2.94,5.67,4.39
			c1.68,1.41,2.99,3.27,4.46,4.93c0.39-0.25,0.77-0.5,1.16-0.76c-0.94-3.01-1.88-6.02-2.82-9.03c0.61,0.14,1.22,0.29,1.82,0.43
			c0.21-0.3,0.42-0.6,0.63-0.9c-0.95-0.98-1.91-1.95-2.86-2.93c-0.36,0.29-0.71,0.58-1.07,0.87
			C595.35,355.14,595.83,355.98,596.31,356.81z M556.77,374.37c0-0.38-0.01-0.76-0.01-1.14c-1.45-0.23-2.9-0.48-4.36-0.68
			c-4.65-0.62-7.67-3.89-7.16-8.4c0.49-4.38,1.27-8.76,2.37-13.03c1.53-5.91,3.53-11.7,5.21-17.58c0.38-1.35,0.27-2.83,0.38-4.26
			c-0.32-0.04-0.63-0.08-0.95-0.12c-0.32,0.73-0.72,1.43-0.95,2.18c-1.47,4.73-3.11,9.42-4.29,14.22c-1.51,6.12-2.78,12.3-3.89,18.5
			c-1.12,6.2,4.6,10.89,10.3,11.01C554.54,375.1,555.66,374.62,556.77,374.37z M532.1,383.68c0.33-0.04,0.66-0.07,0.99-0.11
			c-1.36-19.07-3.84-37.92-11-55.88c1.4,9.31,3.59,18.47,5.34,27.71C529.21,364.78,530.56,374.25,532.1,383.68z M593.1,439.58
			c-0.24,0.72-0.42,0.96-0.36,1.09c0.32,0.65,0.72,1.26,1.07,1.89c3.3,5.86,6.99,11.53,9.79,17.62c2.54,5.53,3.92,11.58,6.17,17.26
			c1.5,3.8,3.59,7.37,5.49,11c0.59,1.13,1.44,2.13,2.18,3.19c0.32-0.29,0.63-0.58,0.95-0.87c-0.11-0.38-0.12-0.82-0.33-1.12
			c-6.42-8.8-8.81-19.28-12.42-29.27c-2.44-6.74-5.27-13.37-10.28-18.74C594.72,440.94,593.96,440.36,593.1,439.58z M573.01,425.1
			c-0.88,0.63-1.23,0.75-1.34,0.99c-1.51,3.04-0.79,9.43,1.3,11.76c2.28,2.53,7.17,3.77,10.88,1.73c6.53-3.6,12.73-7.82,19.02-11.84
			c0.79-0.51,1.35-1.37,2.02-2.07c-1.34-0.08-2.3,0.3-3.15,0.86c-4.49,2.94-8.8,6.18-13.47,8.8c-2.76,1.55-6,2.68-9.13,3.02
			c-3.79,0.41-6.04-2.22-6.12-6.02C572.98,430.13,573.01,427.93,573.01,425.1z M566.86,372.24c-0.59,2.73-1.1,5.11-1.61,7.49
			c0.32,0.08,0.64,0.17,0.96,0.25c2.33-5.48,4.44-11.06,7.05-16.4c2.55-5.22,7.23-9.36,7.9-15.59
			c-6.12,8.62-10.51,18.55-19.47,25.23C563.26,372.93,564.81,372.63,566.86,372.24z M561.75,439.97
			c-0.16-15.73-3.55-30.41-13.97-42.77C555.46,410.47,559.29,424.99,561.75,439.97z M566.57,408.21c2.86,2.81,5.57,3.05,9.25,1.06
			c5.86-3.18,9.7-8.34,12.86-14.01c1.48-2.66,2.51-5.57,3.75-8.37c-0.31-0.16-0.63-0.32-0.94-0.47c-0.83,1.29-1.59,2.63-2.5,3.87
			c-3.15,4.31-6.17,8.73-9.59,12.82C576.37,406.73,572.63,409.48,566.57,408.21z M614.64,382.84c-0.21-0.23-0.41-0.45-0.62-0.68
			c-5.7,2.94-31.82,28.85-32.37,32.16C592.67,403.8,603.65,393.32,614.64,382.84z M590.09,492.5c-5.1-10.16-3.82-21.56-6.31-32.21
			C584.02,471.39,582.32,482.86,590.09,492.5z M611.31,420.77c8.28-2.73,18.99-11.43,19.55-15.58
			C624.5,410.25,618.16,415.31,611.31,420.77z M580.88,450.71c-0.36-0.04-0.71-0.08-1.07-0.13c-1.03,7.9-2.07,15.8-3.1,23.7
			c0.35,0.04,0.71,0.09,1.06,0.13C579.26,466.56,582.03,458.87,580.88,450.71z M640.83,408.02c0.12-1.04,0.22-1.91,0.32-2.82
			c-3.98,2.23-7.76,4.35-11.95,6.71c6.42,0.8,14.77-1.55,14.1-3.89C642.57,408.02,641.78,408.02,640.83,408.02z M546.12,412.52
			c-2.06-7.99-4.97-15.53-11.99-21.49C538.34,398.58,542.23,405.55,546.12,412.52z M624.81,472.35c-3.81-4.36-7.26-8.31-10.92-12.5
			C614.1,464.95,619.43,471.18,624.81,472.35z M570.57,335.06c-0.42-0.17-0.85-0.33-1.27-0.5c-0.86,1.38-1.71,2.77-2.58,4.15
			c-0.56,0.9-1.77,2.38-1.59,2.57c0.96,1.03,2.27,1.73,3.87,2.82C569.62,340.52,570.1,337.79,570.57,335.06z M563.17,406.09
			c-3.32-5.95-0.01-11.88,0.3-18.55C559.56,393.23,559.39,403.01,563.17,406.09z M574.56,378.48c3.74,2.03,7.28,3.95,10.94,5.94
			C584.19,379.31,578.94,376.49,574.56,378.48z M579.11,319.19c-3.19-3.94-10.18-5.32-13.59-2.95
			C569.89,317.18,574.38,318.16,579.11,319.19z M566.5,347.43c1.06,3.76,2.01,7.13,3.12,11.08
			C571.18,352.88,570.13,349.27,566.5,347.43z M510.25,403.22c-0.85,0.92-1.89,1.92-2.71,3.07c-0.14,0.19,0.63,1.5,1.02,1.51
			c1.35,0.06,2.71-0.22,4-0.37C511.64,405.77,511.09,404.77,510.25,403.22z M636.89,414.18c3.61,1.76,7.33,0.55,9.41-2.93
			C642.97,412.28,640.28,413.12,636.89,414.18z M562.2,345.33c-4.57-1.03-8.23,0.65-9.35,4.27
			C555.93,348.2,558.91,346.84,562.2,345.33z M567.72,443.66c-0.5,0.05-1,0.09-1.5,0.14c0.42,3.69,0.84,7.37,1.25,11.06
			c0.39-0.04,0.77-0.08,1.16-0.12C568.33,451.05,568.03,447.35,567.72,443.66z M589.14,415.15c2.03,2.58,4.12,5.23,6.05,7.68
			C595.63,419.31,593.19,416.17,589.14,415.15z M605.22,403.82c-0.43,0.33-0.87,0.65-1.3,0.98c1.35,1.88,2.71,3.77,4.06,5.65
			c0.43-0.31,0.86-0.63,1.29-0.94C607.92,407.61,606.57,405.72,605.22,403.82z M606.73,343.22c-1.37-0.94-2.08-1.69-2.92-1.88
			c-0.47-0.11-1.16,0.72-1.74,1.13c0.68,0.7,1.26,1.6,2.08,2C604.54,344.66,605.4,343.9,606.73,343.22z M637.49,418.62
			c0.04,0.5,0.08,0.99,0.13,1.49c1.98-0.16,3.96-0.32,5.95-0.49c-0.04-0.49-0.08-0.98-0.13-1.47
			C641.46,418.31,639.47,418.46,637.49,418.62z M549.84,317.34c-0.46-0.28-0.91-0.56-1.37-0.84c-0.41,0.91-0.98,1.8-1.14,2.75
			c-0.07,0.39,1,1.4,1.14,1.33c0.86-0.44,1.65-1.06,2.32-1.76C550.89,318.72,550.18,317.85,549.84,317.34z M646.23,427.26
			c-0.03-0.54-0.05-1.08-0.08-1.63c-1.57,0.12-3.13,0.24-4.7,0.36c0.02,0.42,0.05,0.84,0.07,1.26
			C643.09,427.26,644.66,427.26,646.23,427.26z M546.9,509.04c-0.19,0.48-0.37,0.97-0.56,1.45c1.8,0.65,3.6,1.31,5.4,1.96
			c0.13-0.33,0.26-0.66,0.39-0.98C550.39,510.66,548.64,509.85,546.9,509.04z"/>
	</g>
	<g>
		<path class="st0" d="M226.91,521.57c3.45-12.71,7.08-25.37,10.3-38.14c2.11-8.37,3.65-16.88,5.45-25.33
			c0.23-1.09,0.49-2.17,0.81-3.59c0.82,0.52,1.35,0.69,1.63,1.06c4.23,5.59,10.3,8.28,16.64,10.39
			c19.69,6.56,39.45,12.92,59.11,19.54c8.82,2.97,16.56,7.91,22.91,14.77c1.87,2.02,3.03,4.7,4.4,6.89c0.26-1.5,0.65-3.68,1.03-5.87
			c1.84,2.68,0.95,5.24,0.02,8.03c-1.33,3.99-2.15,8.16-3.19,12.25C306.32,521.57,266.61,521.57,226.91,521.57z"/>
	</g>
	<g>
		<path class="st0" d="M399.26,521.57c-1.43-5.29-3.1-10.52-4.16-15.88c-0.35-1.76,0.32-4.3,1.49-5.66
			c4.17-4.86,9.48-8.29,15.35-10.9c14.35-6.39,28.82-12.53,42.91-19.44c5.78-2.83,10.71-7.37,16.02-11.16
			c0.91-0.65,1.73-1.43,2.93-2.43c1.4,2.64,2.6,4.91,3.8,7.18c0.3-0.02,0.61-0.04,0.91-0.05c-2.49-5.03-5.08-10.07,0.32-14.88
			c0.49,0.78,1.04,1.41,1.31,2.14c3.07,8.19,5.85,16.51,9.22,24.58c3.44,8.25,7.36,16.31,11.2,24.39
			c3.53,7.42,7.24,14.76,10.87,22.13C474.03,521.57,436.65,521.57,399.26,521.57z"/>
	</g>
	<g>
		<path class="st0" d="M202.83,521.57c-3.6-2.73-6.91-5.99-10.84-8.08c-14.66-7.77-30.48-12.24-46.63-15.75
			c-9.48-2.06-18.82-4.7-27.29-9.79c-4.19-2.52-4.88-4.63-1.82-9.18c6.63,5.6,14.67,4.5,22.53,4.87
			c19.92,0.93,39.83,2.05,59.72,3.35c5.61,0.37,11.05,2.05,15.65,5.52c1.05,0.79,2.12,2.64,1.94,3.81
			c-1.28,8.45-2.88,16.85-4.38,25.27C208.74,521.57,205.78,521.57,202.83,521.57z"/>
	</g>
	<g>
		<path class="st0" d="M95.1,521.57c3.02-6.94,5.91-13.96,9.13-20.81c1.88-4,4.32-7.73,6.48-11.6c0.78-1.4,1.6-2.21,3.22-1.04
			c10.22,7.36,22.24,9.96,34.15,12.79c13.16,3.13,26.35,6.18,38.41,12.56c4.54,2.41,8.79,5.38,13.17,8.09
			C164.81,521.57,129.95,521.57,95.1,521.57z"/>
	</g>
	<g>
		<path class="st0" d="M436.02,107.15c18.41-26.75,21.33-30.15,23.39-34.01c2.44-4.58,6.11-7.36,10.55-9.55
			c3.02-1.49,6.15-2.91,8.81-4.93c3.01-2.28,5.42-1.37,8.03,0.34c8.71,5.73,13.93,14.12,17.71,23.52c0.44,1.1,0.01,3.47-0.83,4.03
			c-7.08,4.72-11.38,11.78-16.21,18.43c-4.14,5.7-8.43,11.3-12.56,17.02c-1.53,2.11-2.79,4.41-3.77,7.22
			c1.12-0.39,2.33-0.63,3.34-1.2c7.51-4.27,14.91-8.72,22.48-12.89c5.58-3.07,11.77-2.9,17.93-2.81c6,0.08,12-0.16,18-0.11
			c11.48,0.1,22.96,0.33,34.45,0.47c8.87,0.11,17.77-0.3,26.59,0.35c8.7,0.64,17.4,1.95,25.94,3.74c3.41,0.72,6.64,3.19,9.45,5.49
			c1.16,0.95,1.72,3.74,1.28,5.35c-1.34,4.91-4.53,8.69-9.44,10.34c-15.51,5.21-31.44,6.54-47.76,5.55
			c-7.19-0.44-14.57,0.2-21.7,1.36c-8.93,1.45-18.02,3.05-26.45,6.19c-12.72,4.74-24.96,10.79-37.32,16.45
			c-3.69,1.69-5.09,4.35-4.39,6.84c0.8,2.85,4.04,5.09,7.59,5.11c3.06,0.02,6.17,0.22,9.17-0.26c3.45-0.55,5.8,0.76,6.87,3.66
			c1.49,4.03,2.95,8.22,3.35,12.45c0.56,5.96,0.16,12.02,0.11,18.04c-0.02,1.96-0.47,3.59-2.67,4.55c-0.99,0.43-1.76,2.06-2.04,3.29
			c-0.6,2.65-0.81,5.39-1.74,8.06c0.2-2.71,0.32-5.44,0.63-8.14c0.29-2.49-0.58-3.57-3.17-3.32c-2.52,0.24-5.07,0.16-7.58,0.45
			c-4.39,0.51-5.6,2.57-4.41,6.76c1.2,4.24,3.47,7.14,8.21,7.43c3.61,0.22,7.22,0.52,10.98,0.79c0.45,2.88,1.09,6.41,1.56,9.96
			c1.12,8.57-0.35,16.81-3.23,24.89c-0.39,1.09-0.19,2.4-0.24,3.23c-3.18-0.53-6.8-1.4-10.46-1.61c-1.79-0.1-3.75,0.81-5.47,1.62
			c-5.91,2.8-8.99,7.48-11.19,13.79c-1.78,5.07-6.35,9.16-9.67,13.68c1.02-0.38,2.43-0.92,3.85-1.45c0.08,0.17,0.27,0.39,0.22,0.54
			c-2.3,8.42-4.58,16.85-6.97,25.24c-0.49,1.71-1.51,3.27-2.06,4.97c-1.54,4.77-4.3,8.65-8.07,11.9c-3.03,2.61-5.96,5.33-8.93,8.01
			c-2.58-3.18-2.41-3.95,0.91-5.66c1.61-0.83,3.11-1.88,4.66-2.83c-0.17-0.31-0.34-0.62-0.51-0.93c-1.49,0.79-2.94,1.66-4.48,2.35
			c-0.71,0.32-1.97,0.66-2.29,0.33c-0.54-0.57-1-1.92-0.68-2.49c0.92-1.66,2.03-3.33,3.45-4.56c3.57-3.09,7.38-5.91,11.03-8.92
			c0.7-0.58,1.49-1.51,1.51-2.3c0.02-0.78-0.88-1.58-1.37-2.37c-0.69,0.5-2.03,1.15-1.95,1.47c0.64,2.86-1.54,3.98-3.16,5.32
			c-2.52,2.08-5.17,4.01-7.85,5.88c-1.57,1.1-2.86,0.73-3.22-1.31c-1.64-9.34-7.95-15.57-14.88-20.95
			c-7.31-5.67-15.33-10.44-23.05-15.58c-8.41-5.61-7.26-4.36-3.98-11.97c3.47-8.05,7.19-15.98,10.77-23.98
			c0.72-1.61,1.26-3.29,1.89-4.94c-0.26-0.13-0.52-0.27-0.78-0.4c-1,1.81-2.13,3.56-2.99,5.44c-4.02,8.84-7.96,17.71-11.92,26.57
			c-0.7,1.57-1.51,3.04-3.51,1.63c-6.87-4.84-13.17-10.15-17.02-17.94c-2.46-4.99-0.72-9.75,0.2-14.48
			c1.4-7.23,3.45-14.33,5.06-21.53c2.58-11.53,5.06-23.07,7.51-34.63c0.76-3.58,1.27-7.2,1.9-10.81c-0.28-0.07-0.55-0.14-0.83-0.2
			c-0.97,3.65-1.93,7.3-2.91,10.94c-3.29,12.22-6.29,24.53-10.01,36.62c-2.46,7.98-6.65,15.24-12.11,21.71
			c-1.68,2-2.88,4.41-4.29,6.63c-0.17,0.27-0.22,0.67-0.45,0.83c-7.19,5.01-5.06,13.9-8.47,20.59c-3.46,6.78-5.15,14.48-7.41,21.85
			c-0.95,3.1-1.44,6.36-2.03,9.57c-0.35,1.92-1.18,2.85-3.31,3.03c-15.2,1.31-29.76-2.73-44.5-5.18c-2.76-0.46-5.77-0.9-6.29-4.66
			c-0.06-0.45-1.05-0.78-2.1-1.51c0.13,1.32,0.2,2.05,0.28,2.77c-0.27,0.09-0.48,0.25-0.65,0.21c-9.04-1.84-17.74-4.62-25.83-9.16
			c-2.81-1.57-3.65-3.81-3.91-6.97c-0.66-8.07-1.69-16.12-2.88-24.13c-0.27-1.85-1.39-3.93-2.77-5.2
			c-10.8-9.92-17.8-22.37-24.36-35.22c-5.99-11.74-12.4-23.27-18.37-35.02c-3.52-6.94-5.3-14.38-5.51-22.25
			c-0.18-6.63-0.87-13.26-1.54-19.87c-0.23-2.29,0.07-2.82,2.64-3.15c6.43-0.83,12.75-2.51,19.15-3.66
			c3.48-0.62,7.02-0.92,10.55-1.25c2.26-0.21,3.36,0.86,3.73,3.23c0.58,3.71,1.79,4.25,4.84,2.19c2.94-1.98,6.02-2.34,9.37-1.82
			c0.79,0.12,1.62,0.02,3.14,0.02c-3.9-2.55-7.47-0.94-11.39-1c0.37-1.33,0.51-2.43,0.96-3.4c8.11-17.59,10.89-36.23,11.37-55.42
			c0.26-10.31,1.49-20.6,2.16-30.9c0.21-3.23,0.03-6.49,0.03-9.58c0.64-0.22,0.93-0.4,1.01-0.33c6.69,5.43,14.86,4.51,22.62,5.28
			c3.39,0.34,6.95-0.74,10.12,1.59c0.67,0.49,2.13-0.11,3.59,0.05c-6.12,1.52-4.88,6.23-4.91,10.32
			c-0.04,6.12-0.04,12.25,0.07,18.37c0.08,4.6,0.75,9.12,3.66,12.88c0.82,1.05,2.28,1.61,3.44,2.39c0.43-1.21,1.04-2.39,1.26-3.64
			c1.47-8.41,2.81-16.85,4.31-25.25c0.24-1.34,1.09-2.58,2.31-4.18c3.9,8.99,8.95,16.26,19.65,16.44c1.92,0.03,3.84-0.22,5.77-0.34
			c0-0.39,0-0.77,0-1.16c-1.17-0.09-2.33-0.25-3.5-0.25c-7.79-0.02-13.7-3-16.81-10.52c-0.48-1.17-1.03-2.32-1.64-3.43
			c-3.11-5.69-3.82-10.99,2.36-15.24c0.21-0.14,0.26-0.53,0.7-1.51c-4.54,1.3-8.56,2.45-12.58,3.6c6.94-4.3,14.71-7.03,22.48-5.96
			c6.59,0.91,14.21,2.6,16.72,10.86c1.51,4.98,0.34,9.79-0.94,14.61c-0.35,1.31-0.14,2.77-0.51,4.07c-0.23,0.8-1.1,1.4-1.59,2.16
			c-1.05,1.62-2.83,3.25-2.9,4.93c-0.26,6.09,0.04,12.21,0.19,18.32c0.02,0.67,0.46,1.32,1.54,2.27c0.59-1.18,1.34-2.31,1.75-3.56
			c1.76-5.31,2.95-10.87,5.25-15.92c2.15-4.73,5.21-9.11,8.33-13.31c2.18-2.93,5.57-3.9,9.11-2.39c3.19,1.36,6.35,2.87,9.3,4.67
			c1.09,0.66,1.8,2.28,2.24,3.6c2.37,7.15,0.43,14.19-0.66,21.27c-1.36,8.85-2.79,17.71-3.64,26.62c-0.27,2.87,0.95,5.97,1.92,8.83
			c0.77,2.26,2.61,2.97,4.82,1.51c2.47-1.62,4.95-3.22,7.37-4.92c5.49-3.85,11.22-3.44,16.77-0.53c6.61,3.47,8.04,9.56,4.26,16.74
			c-0.83,1.57-1.82,3.15-3.06,4.4c-4.55,4.57-5.79,10.11-5.22,16.29c0.21,2.26,0.24,4.53,1.1,6.9c0.48-1.65,1.07-3.28,1.42-4.96
			c1.55-7.42,6.53-11.59,13.31-13.87c7.2-2.42,14.54-4.42,21.71-6.9c2.65-0.91,5.01-2.64,7.5-4c5.27-2.89,10.55-5.76,15.8-8.69
			c1.78-0.99,3.46-2.17,5.18-3.26c-0.16-0.35-0.33-0.71-0.49-1.06c-1.25,0.46-2.59,0.77-3.75,1.41c-6.2,3.39-12.18,7.23-18.57,10.2
			c-6.08,2.83-12.57,4.78-18.89,7.11c-2.67,0.98-5.33,2.03-8.04,2.87c-0.91,0.28-1.98,0.01-2.98,0c0.04-0.99-0.23-2.14,0.17-2.96
			c2.99-6.16,5.14-13.09,9.45-18.16c5.06-5.95,4.62-12.68,5.71-19.25c2.17-12.99,0.4-26.11,0.7-39.17c0.03-1.37,0.03-2.75,0.1-4.12
			c0.29-5.42,2.18-7.98,6.82-9.33c4.1-1.19,8.56,0.2,11,4.27c2.97,4.94,5.35,10.24,7.95,15.4
			C450.32,81.97,450.62,82.95,436.02,107.15c-15.2,22.72-15.08,23.06-14.96,23.41c1.24-0.51,2.84-0.7,3.66-1.59
			c10.43-11.44,19.35-23.91,25.41-38.26c0.35-0.84,0.49-1.77,0.73-2.66c-0.4-0.19-0.8-0.38-1.2-0.56
			C442.32,103.11,433.91,117.99,436.02,107.15z M358.73,166.7c-0.21-2.49-0.96-5.1-0.47-7.45c0.46-2.22,2.23-4.16,3.61-6.55
			c-6.88,2.84-7.84,7.67-3.19,14.04c0.47,0.93,0.75,2.02,1.43,2.76c4.65,5.13,17.72,4.05,22.16-2.22c-1.29,0.44-2.18,0.62-2.97,1.02
			c-6.94,3.56-13.73,5.01-20.01-1.33C359.16,166.83,358.92,166.79,358.73,166.7z M350.86,205.34c0.36-0.23,0.71-0.46,1.07-0.7
			c-0.91-1.58-1.72-3.24-2.74-4.74c-8.74-12.9-19.94-23.67-30.58-34.91c-0.58-0.61-1.24-1.14-1.91-1.66
			c-7.31-5.7-14.58-11.43-21.95-17.05c-3.25-2.48-6.68-4.71-10.04-7.05c-0.29,0.35-0.57,0.71-0.86,1.06
			C309.4,158.69,333.52,178.55,350.86,205.34z M351.84,158.16c0.31-0.24,0.63-0.48,0.94-0.72c-1.48-1.66-2.74-3.61-4.47-4.93
			c-4.86-3.69-9.96-7.06-14.88-10.68c-8.99-6.61-17.9-13.31-26.86-19.97c-0.62-0.46-1.27-0.88-1.91-1.31
			c-0.22,0.29-0.44,0.59-0.66,0.88C317.53,136.76,337.06,144.43,351.84,158.16z M309.44,240.65c0.28-0.01,0.56-0.02,0.84-0.03
			c0-1.32,0.05-2.64-0.01-3.96c-0.27-5.58-1.28-11.22-0.72-16.71c1.44-14.25-1.63-27.69-6.04-40.99c-0.61-1.84-1.85-3.46-2.8-5.19
			c-0.41,0.8-0.29,1.31-0.1,1.79c6.08,14.81,8.48,30.12,6.96,46.12C306.96,228.06,307.59,234.47,309.44,240.65z M279.12,152.88
			c-0.26,0.1-0.52,0.21-0.78,0.31c0.39,0.93,0.72,1.89,1.17,2.79c2.85,5.76,6.53,11.26,8.41,17.32c2.92,9.43,4.64,19.23,6.84,28.88
			c0.37,1.61,0.64,3.24,0.96,4.86c0.35-0.1,0.69-0.21,1.04-0.31C295.43,187.32,291.04,168.89,279.12,152.88z M405.05,219.47
			c-0.26-0.17-0.52-0.34-0.78-0.52c-7.61,13.72-17.88,26.02-21.69,41.79C390.08,246.98,397.57,233.22,405.05,219.47z M326.7,200.38
			c-0.41,0.09-0.82,0.19-1.23,0.28c1.11,13.24,2.46,26.45,5.45,39.41c0.48-0.07,0.96-0.14,1.44-0.21
			C330.47,226.7,328.58,213.54,326.7,200.38z M350.1,253.4c2.02-4.56-7.7-31.54-11.73-34.44
			C342.14,230.03,346.07,241.57,350.1,253.4z M436.9,178.99c-8.28-6.3-30.76,4.2-33.07,15.34
			C411.24,181.39,423.32,178.66,436.9,178.99z M304.54,273.82c0.01,0.32,0.02,0.65,0.04,0.97c0.92,0.12,1.84,0.24,2.77,0.35
			c8.57,0.98,17.13,2.02,25.72,2.89c2.82,0.29,5.71,0.32,8.53,0.08c1.6-0.14,3.14-1.08,4.44-1.56c-5.31-0.36-10.56-0.7-15.81-1.08
			c-7.34-0.53-14.69-1.11-22.03-1.64C306.97,273.74,305.75,273.82,304.54,273.82z M340.22,101.63c-0.22,0.17-0.43,0.34-0.65,0.52
			c0.4,1,0.65,2.1,1.23,2.98c3.4,5.17,16.06,9.03,21.76,6.67c0.75-0.31,1.54-0.77,2.06-1.38c0.43-0.5,0.48-1.32,0.93-2.73
			c-1.23,0.66-1.73,0.82-2.09,1.14c-2.82,2.49-5.98,3.01-9.39,1.5C349.06,108.1,343.31,107.1,340.22,101.63z M457.15,186.34
			c0.05,0.3,0.1,0.6,0.15,0.9c5.35,0.57,28.46-3.61,30.29-6.12C477.45,182.86,467.3,184.6,457.15,186.34z M309.05,291.7
			c7.61,4.33,27.06,3.77,30.33-1.39C329.2,295.28,319.35,290.88,309.05,291.7z M492.2,217.41c-4.22-1.96-24.34,0.53-27.98,3.43
			C473.55,219.7,482.88,218.55,492.2,217.41z M345.48,119.84c6.91,7.12,13.88,14.28,20.44,21.04
			C365.81,136.47,350.82,120.54,345.48,119.84z M305.5,133.82c8.69,8.37,17.39,16.74,26.08,25.12c0.23-0.25,0.46-0.49,0.69-0.74
			C323.9,149.47,315.35,140.95,305.5,133.82z M415.58,204.16c4.82-7.18,13.08-8.42,20.06-11.81
			C429.34,191.28,416.04,198.95,415.58,204.16z M452.49,184.94c6.54-0.91,24.49-11.04,26.08-14.24
			C469.87,175.45,461.18,180.2,452.49,184.94z M472.55,290.81c-5.53,4.2-11.01,8.35-16.48,12.5
			C461.52,303.06,471.49,295.04,472.55,290.81z M299.31,101.38c1,4.24,11.16,13.07,16.01,13.73
			C309.74,110.33,304.69,106,299.31,101.38z M312.13,300.78c7.58,0.62,15.34,2.76,23.56-1.23
			C327.23,299.99,319.68,300.39,312.13,300.78z M515.71,132.23c1.98-1.59,3.59-2.75,5.02-4.09c1.17-1.1,1.47-2.52-0.34-3.23
			c-3.03-1.18-5.79,1.1-5.32,4.23C515.21,130.04,515.44,130.93,515.71,132.23z M320.28,56.8c3.23-0.51,6.33-1.74,9.12-1.24
			c2.66,0.47,5,2.74,7.63,4.3C335.81,53.31,327.07,51.29,320.28,56.8z M595.89,120.44c-2.58,5.23,3.83,11.9,12.35,10.92
			C602.48,128.86,596.56,127.47,595.89,120.44z M508.68,139.88c4.32-4.74,2.87-15.78-1.87-18.78
			C510.71,126.7,509.47,132.88,508.68,139.88z M231.36,161.61c-0.4-0.34-0.8-0.67-1.2-1.01c-4.37,4.7-8.73,9.41-13.1,14.11
			c0.32,0.28,0.64,0.57,0.95,0.85C222.46,170.91,226.91,166.26,231.36,161.61z M273.02,160.46c-0.74-3.7-8.68-9.77-11.63-9.48
			C265.08,153.99,268.95,157.14,273.02,160.46z M477.18,84.23c-4.55,0.78-9.11,1.55-13.66,2.33c0.05,0.27,0.09,0.53,0.14,0.8
			C468.42,88.01,472.92,86.98,477.18,84.23z M265.66,264.96c-3.8-1.1-7.61-2.21-11.66-3.38C256.44,264.61,261,266.21,265.66,264.96z
			 M357.26,84.79c-3.35-2.22-8.15-0.26-8.68,3.25C351.36,87,354.15,85.95,357.26,84.79z M408.72,171.08
			c-5.48,1.47-7.79,4.45-6.13,7.02C404.65,175.74,406.69,173.41,408.72,171.08z M389.83,146.91c-1.33-4.27-4.46-6.2-8.53-5.41
			C384.12,143.28,386.76,144.96,389.83,146.91z M267.36,96.91c-0.06,0.29-0.12,0.58-0.18,0.87c2.62,1.91,5.46,2.18,8.45,1.31
			c0.05-0.33,0.1-0.66,0.14-0.98C272.97,97.7,270.17,97.3,267.36,96.91z M367.79,152.06c0.12,0.57,0.24,1.14,0.35,1.72
			c2.39-0.47,4.78-0.93,7.18-1.4c-0.1-0.53-0.2-1.06-0.3-1.6C372.61,151.21,370.2,151.63,367.79,152.06z M430.91,231.61
			c2.18-1.88,3.9-3.36,5.62-4.85C432.38,226.53,431.19,227.64,430.91,231.61z M365.4,79.89c-1.24-3.52-4.27-4.92-8.04-3.68
			C360.12,77.47,362.69,78.65,365.4,79.89z M447.02,257.16c1.4-1.04,2.04-1.39,2.51-1.89c0.85-0.91,1.59-1.92,2.38-2.88
			c-0.33-0.21-0.83-0.67-0.96-0.59c-1.16,0.77-2.33,1.56-3.32,2.53C447.25,254.71,447.34,255.57,447.02,257.16z M224.35,198.77
			c0.2,0.31,0.4,0.62,0.61,0.93c3.14-2.05,6.28-4.1,9.42-6.14c-0.21-0.32-0.42-0.65-0.64-0.97
			C230.61,194.64,227.48,196.71,224.35,198.77z M444.84,255.36c-1.01,1.51-1.97,2.94-3.19,4.76
			C446.07,259.54,446.85,258.17,444.84,255.36z M415.96,146.23c0.06,0.46,0.12,0.92,0.18,1.38c1.95-0.14,3.9-0.29,5.85-0.43
			c-0.02-0.36-0.05-0.72-0.07-1.08C419.91,145.65,417.87,144.33,415.96,146.23z M317.52,67.84c0.43,3.8,2.01,4.87,5.3,4.21
			C320.9,70.52,319.21,69.18,317.52,67.84z M296.48,290.29c0.12-0.47,0.25-0.93,0.37-1.4c-2.29-0.6-4.58-1.21-6.88-1.81
			c-0.11,0.42-0.22,0.84-0.34,1.26C291.92,288.99,294.2,289.64,296.48,290.29z M458.16,88.46c-0.06,0.54-0.12,1.09-0.17,1.63
			c1.94,0.14,3.89,0.28,5.83,0.43c0.04-0.48,0.08-0.96,0.12-1.43C462.02,88.88,460.09,88.67,458.16,88.46z M358.32,213.59
			c-0.37,0.23-0.75,0.47-1.12,0.7c1.58,2.41,3.16,4.82,4.74,7.23c0.29-0.18,0.59-0.37,0.88-0.55
			C361.32,218.51,359.82,216.05,358.32,213.59z M381.45,215.28c0.29-0.16,0.57-0.32,0.86-0.47c0.06-2.48-1.29-3.86-3.24-4.78
			c-0.3,0.23-0.6,0.45-0.9,0.68C379.26,212.23,380.36,213.75,381.45,215.28z M327.98,72.11c0.2-0.33,0.41-0.67,0.61-1
			c-2.4-1.53-4.79-3.07-7.19-4.6c-0.22,0.34-0.44,0.68-0.65,1.02C323.15,69.06,325.57,70.58,327.98,72.11z M292.32,307.85
			c0.1-0.48,0.2-0.96,0.3-1.43c-1.61-0.35-3.22-0.7-4.83-1.05c-0.1,0.48-0.2,0.96-0.31,1.44
			C289.1,307.15,290.71,307.5,292.32,307.85z M379.33,160.62c1.86-4.03,1.54-5.66-1.12-6.79
			C378.55,155.95,378.88,157.95,379.33,160.62z M338.31,67.88c0.46-0.05,0.93-0.11,1.39-0.16c-0.22-1.61-0.44-3.22-0.66-4.82
			c-0.45,0.06-0.9,0.12-1.35,0.18C337.89,64.68,338.1,66.28,338.31,67.88z M374.42,220.66c-0.31,0.35-0.61,0.7-0.92,1.05
			c1.45,1.52,2.9,3.05,4.35,4.57c0.4-0.4,0.8-0.8,1.19-1.2C377.5,223.6,375.96,222.13,374.42,220.66z M238.19,186.98
			c0.33,0.2,0.66,0.4,0.99,0.6c1.22-1.82,2.44-3.63,3.65-5.45c-0.33-0.21-0.65-0.42-0.98-0.62
			C240.64,183.33,239.41,185.15,238.19,186.98z M272.13,265.62c-0.05,0.46-0.11,0.91-0.16,1.37c1.82,0.1,3.64,0.2,5.46,0.3
			c0.03-0.34,0.07-0.69,0.1-1.03C275.73,266.05,273.93,265.83,272.13,265.62z M443.1,226.35c0-0.27-0.01-0.54-0.01-0.81
			c-1.56,0-3.12,0-4.68,0c0,0.27,0,0.54,0.01,0.81C439.98,226.35,441.54,226.35,443.1,226.35z M467.63,77.06
			c-0.16,0.44-0.33,0.88-0.49,1.33c1.32,0.47,2.64,0.95,3.96,1.42c0.14-0.38,0.29-0.76,0.43-1.14
			C470.23,78.13,468.93,77.59,467.63,77.06z M260.21,122.95c-0.04,0.41-0.07,0.81-0.11,1.22c1.72,0.18,3.43,0.36,5.15,0.54
			c0.04-0.34,0.08-0.69,0.12-1.03C263.64,123.44,261.92,123.19,260.21,122.95z"/>
	</g>
	<g>
		<path class="st0" d="M125.52,167.99c-0.73-2.75-1.41-5.52-2.21-8.26c-0.6-2.05,0.05-3.06,2.19-3.07c2.43-0.01,4.86,0,7.29-0.01
			c2.67-0.01,3.63,1.27,2.98,3.85c-0.67,2.66-1.31,5.33-1.92,8.01c-0.21,0.95-0.27,1.94-0.41,2.92c0.34,0.11,0.68,0.22,1.02,0.33
			c0.5-1.25,1.15-2.46,1.47-3.76c0.74-2.97,1.04-6.08,2.06-8.93c0.52-1.44,2.03-2.86,3.45-3.56c5.01-2.45,10.23-4.46,15.25-6.88
			c1.96-0.95,3.08-0.95,4.52,0.88c2.21,2.81,4.69,5.44,7.28,7.91c5.76,5.48,8.83,12.33,11.5,19.71c2.48,6.88,5.98,13.48,9.71,19.8
			c4.32,7.34,9.58,14.12,14.07,21.37c8.71,14.07,17.78,27.95,24.35,43.23c0.37,0.87,0.87,1.69,1.43,2.46
			c5.38,7.47,9.21,15.48,10.37,24.82c0.76,6.14,2.38,12.22,4.14,18.17c2.45,8.28,1.86,16.26-1.21,24.17
			c-1.64,4.23-3.7,8.32-5.08,12.63c-1.41,4.38-2.22,8.95-3.28,13.43c-0.19,0.79-0.33,1.59-0.63,3.07c-2.12-1.54-3.78-2.87-5.55-4.02
			c-11.9-7.66-25.15-12.32-38.34-17.11c-5.45-1.98-10.89-4.02-16.27-6.21c-3.41-1.39-6.9-2.85-8.75-7.39
			c-0.16,0.73-0.33,1.46-0.49,2.19c-0.43-0.14-0.87-0.29-1.3-0.43c-0.32-1.53-0.72-3.05-0.93-4.59c-0.53-3.93-0.71-7.92-1.52-11.78
			c-0.79-3.8-2.2-7.47-3.3-11.21c-0.86-2.94-2.73-4.49-5.8-5.07c-4.77-0.91-9.69-1.6-14.14-3.41c-5.21-2.12-10.15-5.07-14.86-8.18
			c-2.81-1.86-5.05-1.87-7.86-0.44c-3.95,2-8.03,3.74-12.08,5.55c-1.32,0.59-2.91,1.14-2.97-1.14c-0.26-9.1-2.94-17.2-9.82-23.94
			c7.63-4.44,15.02-8.57,22.23-13c7.2-4.43,14.21-9.18,21.3-13.79c-0.27-0.46-0.53-0.91-0.8-1.37c-1.94,1-3.97,1.85-5.79,3.03
			c-9.11,5.91-18.21,11.85-27.22,17.92c-2.51,1.69-4.41,1.76-7.12,0.07c-8.86-5.52-12.67-14.12-15.07-23.61
			c-1.06-4.2-1.46-8.56-2.56-12.75c-0.65-2.48-2.08-4.76-3.33-7.49c0.97-0.24,2.02-0.6,3.11-0.75c13.82-1.83,27.66-3.49,41.64-2.76
			c3.56,0.19,7.13,0.82,10.6,1.64c4.86,1.14,7.75,4.45,8.98,9.26c0.27,1.07,0.65,2.1,0.98,3.15c0.37-0.05,0.74-0.1,1.11-0.14
			c-0.08-1.54,0.14-3.16-0.28-4.6c-1.83-6.28-6.43-9.39-12.61-10.56c-9.43-1.78-18.88-1.67-28.37-0.41
			c-7.53,0.99-15.11,1.57-22.63,2.6c-12.88,1.76-25.33,5.37-37.81,8.9c-8.46,2.39-16.59,0.83-23.63-4.71
			c-5.36-4.22-5.23-7.3-0.15-11.7c6.68-5.78,14.94-8.15,23-10.95c4.77-1.66,9.67-2.94,14.66-4.43c-2.49-3.75-5.03-7.29-7.27-11.01
			c-1.9-3.16-3.68-6.42-5.06-9.83c-0.93-2.29-1.44-4.89-1.49-7.37c-0.19-9.5,7.07-15.2,15.76-11.54c6.6,2.78,13,6.69,18.51,11.27
			c5.1,4.24,8.82,10.12,13.32,15.11c0.91,1.01,2.59,1.33,3.94,1.91c0.25,0.11,0.62-0.05,0.94-0.08c8.19-0.92,9.09-1.85,8.91-10.11
			c-0.08-3.68-0.63-7.36-0.84-11.04c-0.11-1.99-0.28-4.06,0.13-5.97c1.1-5.18,0.13-10.06-1.48-14.93c-0.32-0.96-0.55-1.94-0.84-2.96
			c6.35-0.82,15.31,4.48,17.36,9.9c0.43,1.14,1.44,2.04,2.04,3.13c0.8,1.44,2.05,2.97,2.04,4.45c-0.01,2.99,1.31,5.16,2.82,7.51
			c1.46,2.29,2.31,4.95,3.54,7.4c0.94,1.88,2.05,3.67,3.08,5.49c0.69,2.28,1.39,4.56,2.08,6.84c0.33-0.12,0.66-0.24,0.99-0.36
			C128.63,171.87,127.95,169.55,125.52,167.99z M169.68,302.65c4.23,2.36,6.3,7.09,11.17,7.06c-0.79-1.03-1.77-1.76-2.84-2.32
			c-5.48-2.87-9.12-7.63-12.31-12.61c-2.77-4.33-4.8-9.14-7.01-13.8c-1.32-2.79-2.37-5.71-3.54-8.57c6.27,6.69,20.1,11.98,25.4,9.03
			c-3.87-0.9-7.41-1.62-10.9-2.57c-3.61-0.98-7.2-2.09-10.39-5.42c5.31-0.33,10.25,0.3,14.29-2.93c-2.85-0.08-5.62,0.62-8.39,0.61
			c-2.9-0.01-5.85-0.49-8.69-1.17c-2.56-0.61-5-1.76-7.49-2.68c-0.17,0.34-0.34,0.68-0.5,1.01c3.61,0.77,4.44,3.55,5.34,6.48
			c0.83,2.7,2.02,5.31,3.21,7.88c3.02,6.49,6.1,12.94,9.21,19.38c1.01,2.08,2,4.22,3.36,6.06c1.94,2.63,4.66,4.26,7.91,4.97
			C175.12,309.69,170.43,308.17,169.68,302.65z M222.45,310.57c-5.41,1.17-10.29,2.65-15.28,3.18c-5.05,0.53-10.2,0.12-14.72,0.12
			C198.7,317.53,217.17,315.99,222.45,310.57z M185.48,294.74c-8.01-4.45-15.74-8.75-23.4-13.01
			C162.89,286.12,179,295.29,185.48,294.74z M151.13,189.64c1.42-1.1,2.49-1.93,3.57-2.76c-1.22-0.62-2.44-1.23-3.66-1.85
			c-1.57-0.8-3.18-1.53-4.68-2.43c-1.56-0.94-3-2.05-5.18-3.57c3.79,5.32,7.02,9.85,10.74,15.07
			C151.54,191.96,151.31,190.65,151.13,189.64z M31.04,196.75c10.2,1.85,12.87,7.57,9.09,17.02c4.15-3.38,5.03-8.03,2.96-12.01
			C40.81,197.37,36.17,195.18,31.04,196.75z M175.32,219.09c-0.32,0.34-0.65,0.69-0.97,1.03c3.93,3.1,4.11,9.37,9.88,10.97
			c0.65-1.13,1.29-2.25,1.99-3.47c-4-0.75-3.92-0.81-6.66-4.31C178.35,221.75,176.75,220.49,175.32,219.09z M72.02,186.45
			c-0.34,0.15-0.67,0.3-1.01,0.46c0.2,5.69,4.22,13.67,7.73,14.61C76.41,196.31,74.22,191.38,72.02,186.45z M149.61,219.36
			c5.28-0.54,12.67-8.56,11.47-12.52C157.27,211,153.36,215.27,149.61,219.36z M163.59,231.93c-4.15,0.05-15.87,7.59-17.23,11.11
			C152.45,239.12,158.02,235.52,163.59,231.93z M122.14,221.52c0.29-0.24,0.59-0.49,0.88-0.73c-1.19-1.68-2.33-3.39-3.59-5.01
			c-0.64-0.83-1.42-1.67-2.33-2.11c-0.34-0.16-1.81,0.9-1.75,1.24c0.19,1.13,0.55,2.54,1.36,3.21
			C118.34,219.47,120.31,220.41,122.14,221.52z M120.66,178.05c0.1,6.04,3.12,8.39,8.74,6.29
			C126.31,182.12,123.59,180.16,120.66,178.05z M108.77,274.98c-2.49-3.76-5.08-7.69-7.84-11.86
			C100.43,269.17,104.47,274.79,108.77,274.98z M108.83,176.7c2.87,3.91,5.38,7.35,7.95,10.85
			C117.74,182.85,114.27,177.77,108.83,176.7z M213.13,303.51c6.19,0.14,11.48-2.07,16.51-7.07
			C223.6,299.03,218.37,301.27,213.13,303.51z M156.1,178.89c0.09-0.47,0.18-0.95,0.27-1.42c-4.47-0.9-8.94-1.79-13.41-2.69
			c-0.1,0.49-0.2,0.99-0.3,1.48C147.14,177.14,151.62,178.02,156.1,178.89z M167.93,292.54c1.64,3.83,8.03,7.83,12.05,7.42
			C175.84,297.41,171.98,295.03,167.93,292.54z M121.08,252.86c2.2,2.48,4.4,4.96,6.89,7.76
			C128.11,256.25,125.53,253.11,121.08,252.86z M102.63,187.46c0.33-0.39,0.65-0.78,0.98-1.17c-1.08-1.13-2.04-2.46-3.32-3.27
			c-0.5-0.31-1.74,0.56-2.64,0.89c0.4,0.77,0.62,1.85,1.25,2.23C100.01,186.8,101.38,187.04,102.63,187.46z M165.49,163.74
			c1.45,1.08,2.91,2.16,4.36,3.23c0.2-0.85,0.8-1.86,0.54-2.51C169.6,162.54,168,162.07,165.49,163.74z M232.28,340.27
			c0.53-0.2,1.06-0.39,1.6-0.59c-0.41-1.37-0.72-2.8-1.35-4.06c-0.11-0.23-1.59,0.23-2.44,0.37
			C230.82,337.42,231.55,338.85,232.28,340.27z M191.35,246.29c-0.21-0.45-0.43-0.9-0.64-1.35c-1.68,0.85-3.37,1.71-5.05,2.56
			c0.23,0.45,0.46,0.91,0.7,1.36C188.02,248,189.69,247.14,191.35,246.29z M170.77,198.16c0.42-0.08,0.84-0.16,1.26-0.24
			c-0.61-2.07-1.21-4.15-1.82-6.22c-0.37,0.11-0.74,0.22-1.12,0.32C169.65,194.07,170.21,196.12,170.77,198.16z M80.56,199.41
			c0.4-0.29,0.8-0.58,1.21-0.87c-1.08-1.42-2.15-2.83-3.23-4.25c-0.32,0.24-0.65,0.48-0.97,0.71
			C78.56,196.48,79.56,197.95,80.56,199.41z M106.59,266.75c-0.35,0.31-0.7,0.62-1.05,0.92c0.95,1,1.9,2.01,2.86,3.01
			c0.28-0.25,0.56-0.5,0.85-0.75C108.36,268.87,107.48,267.81,106.59,266.75z"/>
	</g>
	<g>
		<path class="st0" d="M348.62,500.11c-5.66-8.97-15.43-14.53-26.11-18.49c-13.64-5.06-27.46-9.63-41.26-14.22
			c-6-1.99-12.21-3.33-18.22-5.29c-5.97-1.95-11.5-4.82-15.51-9.89c-1.65-2.08-3.52-4.15-4.5-6.54c-0.57-1.38-0.09-3.78,0.84-5.06
			c2.28-3.17,3.11-6.63,3.36-10.36c0.15-2.19,1.13-2.46,3.16-2c12.94,2.93,26.04,3.71,39.28,2.98c17.95-0.99,35.65,0.38,52.76,6.36
			c6.22,2.17,6.98,3.49,6.9,9.96c-0.11,9.6-0.03,19.21-0.15,28.81c-0.06,5.27-0.4,10.54-0.54,15.81
			C348.55,495.21,348.62,498.26,348.62,500.11z"/>
	</g>
	<g>
		<path class="st0" d="M107.74,71.46c0.29,1.56,0.08,3.28,0.84,4.12c5.56,6.15,8.21,13.95,12.26,20.94
			c1.08,1.86,3.01,3.86,4.96,4.46c5.67,1.74,8.99,5.56,11.38,10.64c2.11,4.49,4.28,8.94,6.56,13.35c0.91,1.75,0.69,2.93-0.96,3.99
			c-7.66,4.94-16.02,8-25.07,8.99c-1.24,0.14-3.03-0.61-3.85-1.56c-2.87-3.37-6.49-5.27-10.6-6.51c-1.41-0.43-2.87-0.9-4.07-1.71
			c-2.22-1.49-4.36-1.06-6.86-0.88c-3.44,0.25-7.04-0.64-10.48-1.43c-9.24-2.14-18.44-4.48-27.65-6.75
			c-6.77-1.67-11.65-5.34-13.11-12.54c-1.01-5.02-0.1-7.67,4.77-9.23c5.87-1.89,12.02-3.2,18.15-3.89
			c5.28-0.59,10.69,0.05,16.04,0.14c0.8,0.01,1.59,0,2.67,0c-2.87-5.45-5.56-10.56-8.39-15.93c5.3-0.5,9.65-1.04,14.01-1.22
			c0.81-0.03,1.88,1.19,2.48,2.06c1.35,1.96,2.49,4.07,3.72,6.11c0.27-0.13,0.55-0.25,0.82-0.38c-0.83-1.94-1.55-3.94-2.51-5.81
			c-1.15-2.23-0.99-3.75,1.65-4.62c1.19-0.39,2.36-0.99,3.37-1.72c2.22-1.62,4.3-2.91,7.07-0.89
			C105.73,71.74,107.16,71.42,107.74,71.46z M50.01,113.52c0.03,0.29,0.07,0.58,0.1,0.88c0.78,0.09,1.59,0.37,2.32,0.23
			c4.44-0.83,8.97-1.44,13.27-2.77c2.4-0.74,4.52-2.59,6.54-4.23c1.35-1.1,2.09-2.74,0.68-5.24c-2.24,4.75-5.76,7.25-10.25,8.33
			C58.47,111.72,54.23,112.59,50.01,113.52z M126.78,119.35c-0.38-2.95,4.82-5.09,1.7-8.02c-2.07-1.95-4.93-3.06-7.43-4.54
			c-0.11,0.22-0.22,0.45-0.33,0.67C122.74,111.42,124.76,115.38,126.78,119.35z M110.37,86.49c-0.38-4.37-3.73-6.53-8.71-4.84
			C104.51,83.23,107.36,84.82,110.37,86.49z M87.7,103.9c-0.16,0.35-0.33,0.69-0.49,1.04c0.8,0.52,1.64,1.51,2.39,1.44
			c0.73-0.07,1.37-1.2,2.68-2.48C90.03,103.9,88.86,103.9,87.7,103.9z M70.87,100.04c-0.54-3.35-1.83-4.28-4.97-3.87
			C67.52,97.44,68.89,98.5,70.87,100.04z"/>
	</g>
	<g>
		<path class="st0" d="M535.79,190.33c0.37-2.44-0.11-4.16-2.53-5.21c-2.82-1.22-2.75-4.05-2.79-6.51c-0.01-0.52,1.77-1.59,2.63-1.5
			c2.81,0.3,5.7,0.68,8.34,1.62c12.02,4.27,24.02,8.62,35.93,13.19c10.92,4.19,21.85,8.4,32.49,13.22c4.28,1.94,8,5.29,11.61,8.43
			c2.1,1.83,1.93,4.4,0.16,6.87c-5.03,7.01-11.7,9.68-20.11,8.01c-2.27-0.45-4.5-1.15-6.76-1.65c-16.46-3.66-32.9-7.39-49.4-10.85
			c-3.02-0.63-6.29-0.11-9.45-0.12c-2.69-0.01-5.38,0-8.48,0c0.68-2.42,1.4-4.37,1.77-6.39c0.85-4.67,1.85-9.35,2.13-14.07
			c0.14-2.35,1.74-3.53,2.54-5.29C533.94,189.92,535.04,190.22,535.79,190.33z M608.99,218.69c-3.42-3.87-7.95-7.03-7.25-13.15
			C599.52,210.75,603.31,217.78,608.99,218.69z"/>
	</g>
	<g>
		<path class="st0" d="M144.41,379.28c9.71,7.71,19.87,11.7,30.45,14.86c11.21,3.36,22.66,5.06,34.33,5.12
			c6.53,0.04,13.07-0.24,19.61-0.46c2.08-0.07,3.13,0.86,2.8,2.8c-0.92,5.41-1.83,10.84-3.19,16.15c-0.31,1.23-2.23,2.5-3.65,2.94
			c-11.71,3.61-23.75,3.95-35.74,2.22c-8.53-1.23-17.05-3.07-25.29-5.57c-8.33-2.52-15.93-6.81-21.7-13.65
			c-0.83-0.98-1.84-2.47-1.66-3.54C141.48,393.44,142.91,386.78,144.41,379.28z"/>
	</g>
	<g>
		<path class="st0" d="M221.29,383.83c0.98,1.15,1.4,1.63,1.87,2.18c-0.33,0.09-0.46,0.17-0.53,0.14
			c-7.77-3.91-16.45-3.24-24.66-4.95c-7.32-1.53-14.61-3.25-21.91-4.91c-5.61-1.28-11.21-2.6-16.34-3.79
			c0.32-0.97,1.14-2.53,1.32-4.15c0.7-6.5,1.19-13.02,1.79-19.53c0.09-1.01,0.34-2.01,0.6-3.54c2.42,1.2,4.38,2.37,6.48,3.17
			c10.94,4.18,21.94,8.19,32.87,12.39c10.85,4.17,21.64,8.5,30.5,16.41c0.2,0.18,0.55,0.2,0.86,0.3c0.19-3.88-1.28-6.2-4.56-7.58
			c-1.25-0.53-2.4-1.31-3.58-2c-15.19-8.8-32.09-13.35-48.32-19.57c-2.66-1.02-5.21-2.31-7.84-3.4c-2.29-0.95-3.19-2.54-2.75-5.01
			c0.32-1.83,0.44-3.7,0.66-5.74c0.83,0.11,1.37,0.07,1.82,0.25c11.68,4.62,23.41,9.09,34.99,13.95c8.12,3.41,16.62,6.18,23.5,12.06
			c3.1,2.65,6.09,5.25,5.64,9.96c-0.09,0.95,0.57,2,0.95,2.98c2.25,5.7-0.52,9.88-6.6,9.99
			C226.05,383.48,224.08,383.66,221.29,383.83z"/>
	</g>
	<g>
		<path class="st0" d="M522.55,265.6c0.3-8.74,0.66-17.49,0.88-26.24c0.05-2.14,0.85-2.93,2.9-2.42c7.75,1.9,15.54,3.21,22.66,7.56
			c4.82,2.94,10.81,4.03,16.35,5.69c6.87,2.05,13.96,3.44,20.66,5.9c3.3,1.21,6.24,3.89,8.84,6.42c2.89,2.81,2.69,5.95,0.05,9.05
			c-5.78,6.77-13.78,7.8-21.72,7.04c-13.11-1.26-26.14-3.48-39.2-5.29c-1.99-0.28-3.96-0.61-5.95-0.84
			C522.28,271.76,521.92,271.35,522.55,265.6z M539.37,247.98c0.21-2.17-3.25-4.79-7.15-5.37
			C532.1,247.84,536.1,247.42,539.37,247.98z M580.98,258.54c-1.56,4.21-0.77,6.73,2.48,8.25
			C582.64,264.04,581.92,261.65,580.98,258.54z M526.21,259.79c-0.73,1.38-1.22,2.32-1.71,3.25c0.15,0.27,0.31,0.53,0.46,0.8
			c1.27-0.32,2.54-0.64,3.8-0.96C528,261.96,527.24,261.03,526.21,259.79z"/>
	</g>
	<g>
		<path class="st0" d="M368.87,295.38c3.22-3.58,2.71-8.31,3.82-12.53c1-3.82,1.6-7.76,2.49-12.25c2.47,3.35,4.16,6.29,6.47,8.62
			c3.85,3.89,7.97,7.55,12.22,11c2.28,1.85,2.5,3.59,1.37,6.03c-1.05,2.27-1.9,4.64-2.84,6.96c0.29,0.15,0.58,0.3,0.87,0.44
			c1.15-2.34,2.44-4.62,3.41-7.03c1.06-2.63,2.26-2.64,4.49-1.13c7.52,5.06,15.44,9.56,22.71,14.94
			c9.64,7.13,18.33,15.19,18.52,28.84c-0.57-0.14-1.35-0.09-1.63-0.44c-2.68-3.37-6.84-3.93-10.44-5.36
			c-11.36-4.53-22.87-8.71-34.33-12.98c-5.54-2.06-11.24-3.73-16.61-6.15c-3.2-1.44-6.13-3.75-8.68-6.2
			c-1.03-0.99-0.81-3.38-0.95-5.15c-0.19-2.33-0.19-4.67-0.27-7.01C369.28,295.79,369.07,295.59,368.87,295.38z"/>
	</g>
	<g>
		<path class="st0" d="M370.89,386.7c-0.63-1.31-1.28-2.47-1.76-3.7c-4.14-10.74-4.16-21.85-2.89-33.06
			c0.36-3.14,0.98-6.25,1.34-9.4c0.25-2.22,1.01-3.05,3.29-2.02c15.12,6.83,31.3,9.03,47.58,10.74c4.51,0.47,9.01,0.99,13.51,1.56
			c0.87,0.11,1.71,0.56,2.6,1.49c-11.16,3.3-22.08,7.29-33.98,7.13c3.58,1.66,7.39,1.66,10.98,0.81c8.39-1.97,16.65-4.52,25.03-6.54
			c1.97-0.48,4.33-0.17,6.31,0.44c1.89,0.59,1.84,2.25,0.16,3.31c-1.32,0.83-2.79,1.54-4.29,1.94c-9.45,2.56-18.93,4.98-28.38,7.54
			c-13.97,3.77-27.3,8.85-38.11,18.97C371.99,386.2,371.57,386.33,370.89,386.7z"/>
	</g>
	<g>
		<path class="st0" d="M210.88,134.98c-2.32,0-4.64,0.01-6.97,0c-2.59-0.01-3.61-1.15-3.72-3.9c-0.3-7.39,1.55-13.76,5.42-20.29
			c3.86-6.5,5.33-14.38,8.25-21.48c1.77-4.31,4.06-8.47,6.59-12.39c2.1-3.26,8.46-2.69,11.45,0.83c3.74,4.41,4.74,9.85,4.99,15.38
			c0.28,5.96-1.06,12.3,0.54,17.82c1.47,5.04,1.16,9.84,1.49,14.74c0.33,4.89-0.04,5.47-4.9,6.38c-7.64,1.44-15.35,2.52-23.03,3.75
			C210.97,135.54,210.93,135.26,210.88,134.98z M227.88,123.83c-0.07-0.27-0.14-0.53-0.21-0.8c-4.59,0.78-9.18,1.56-13.77,2.34
			C218.77,126.13,223.57,126.48,227.88,123.83z M232.36,115.72c-0.14-0.49-0.27-0.97-0.41-1.46c-3.69,1.15-7.37,2.29-11.06,3.44
			c0.1,0.36,0.19,0.72,0.29,1.09C224.9,117.76,228.63,116.74,232.36,115.72z M221.75,100.58c0.06,0.39,0.12,0.78,0.19,1.16
			c1.96-0.4,3.91-0.8,5.87-1.21c-0.08-0.39-0.16-0.77-0.24-1.16C225.63,99.78,223.69,100.18,221.75,100.58z"/>
	</g>
	<g>
		<path class="st0" d="M222.27,456.85c-0.87,6.28-1.67,12.04-2.42,17.48c-3.7-5.21-10.05-5.37-15.88-5.18
			c-10.42,0.34-20.81,1.59-31.2,2.65c-12.77,1.3-25.51,1.73-38.14-0.97c-3.13-0.67-6.23-1.99-9.04-3.54
			c-3.06-1.69-3.32-3.77-2.07-6.98c2.17-5.61,4.23-11.26,6.24-16.92c1.24-3.5,1.99-3.73,4.72-1.25c6.73,6.11,15.01,9.37,23.44,12.13
			c18.09,5.91,36.7,6.33,55.44,4.43C216.12,458.41,218.85,457.57,222.27,456.85z"/>
	</g>
	<g>
		<path class="st0" d="M257.2,324.63c3.36,1.93,6.41,4.35,9.88,5.57c17.23,6.01,34.49,12.1,52.75,14.14
			c7.29,0.81,14.72,0.59,22.08,0.49c2.95-0.04,3.83,0.92,4.07,3.72c0.6,7.02-0.43,9.6-9.31,11.39c-13.33,2.68-26.22-0.04-38.99-3.56
			c-4.77-1.31-9.66-2.44-14.18-4.4c-6.34-2.75-12.72-5.69-18.43-9.54c-3.8-2.56-6.48-6.79-9.55-10.37
			c-0.44-0.52-0.54-1.65-0.32-2.36C255.74,327.95,256.55,326.25,257.2,324.63z"/>
	</g>
	<g>
		<path class="st0" d="M254.99,337.84c3.61,3.14,6.26,5.67,9.14,7.9c7.82,6.04,16.95,9.43,26.35,11.9
			c8.75,2.3,17.62,4.33,26.56,5.66c8.79,1.31,17.7,1.14,26.24-2.09c1.78-0.67,2.64-0.11,2.69,1.74c0.23,7.38,0.46,14.75,0.65,22.13
			c0.06,2.16-0.71,3.28-3.08,2.15c-17.94-8.57-37.21-12.96-56.33-17.84c-7.26-1.85-14.45-4.05-20.45-8.86
			c-5.65-4.54-9.28-10.6-12.18-17.06C253.97,342.13,254.77,340.16,254.99,337.84z"/>
	</g>
	<g>
		<path class="st0" d="M349.13,432.98c0.1,3.54-0.43,3.89-3.73,2.69c-17.29-6.32-35.15-8.15-53.5-7.56
			c-11.77,0.38-23.58-0.59-35.37-1.05c-1.77-0.07-3.52-0.63-5.27-1.03c-2.7-0.62-3.46-2.48-3.04-5.02c0.54-3.22,1.15-6.43,1.61-9.66
			c0.33-2.32,1.53-3,3.48-1.91c8.27,4.63,17.43,4.69,26.47,5.03c17.09,0.64,34.13,1.65,50.88,5.43c3.9,0.88,7.77,2,11.54,3.33
			C348.03,425.27,348.95,426.74,349.13,432.98z"/>
	</g>
	<g>
		<path class="st0" d="M368.57,311.05c13.07,10.18,28.67,11.94,42.57,17.85c8.05,3.43,16.2,6.65,24.08,10.42
			c2.94,1.4,5.39,3.96,7.8,6.27c0.66,0.64,0.76,2.47,0.33,3.41c-0.28,0.61-1.99,0.95-2.98,0.81c-12-1.62-24.04-3.05-35.96-5.14
			c-9.02-1.58-17.89-3.98-26.81-6.11c-1.52-0.36-2.97-1.1-4.38-1.82c-5.62-2.87-6.66-5.58-5.41-11.8c0.57-2.85,0.3-5.88,0.43-8.82
			C368.32,314.71,368.43,313.28,368.57,311.05z"/>
	</g>
	<g>
		<path class="st0" d="M79.62,57.2c0.95,1.95,1.86,3.92,2.87,5.85c0.96,1.84,0.5,3.2-1.47,3.62c-3.37,0.73-6.78,1.5-10.2,1.65
			c-1.56,0.07-3.63-0.87-4.68-2.06c-2.58-2.89-4.72-6.17-6.99-9.33c-2.01-2.8-3.55-6.08-6.01-8.39c-5.63-5.31-5.82-16.79-3.32-21.99
			c0.65-1.34,2.85-2.57,4.43-2.71c5.03-0.42,8.99,2.49,12.97,5.09c10.15,6.64,17.7,15.85,25.02,25.29c0.19,0.25,0.41,0.48,0.61,0.73
			c3.38,4.27,3.18,5.29-1.58,7.8c-0.93,0.49-1.93,0.86-2.86,1.35c-1.88,0.99-3.16,0.48-4.16-1.36c-1.12-2.07-2.38-4.08-3.58-6.11
			C80.33,56.83,79.97,57.01,79.62,57.2z M51.5,28.76c-0.18,0.29-0.36,0.58-0.54,0.87c4.49,3.37,8.98,6.73,13.47,10.1
			c0.15-0.14,0.31-0.28,0.46-0.42c-0.22-0.7-0.45-1.4-0.69-2.17c1.88,0.24,3.49,0.44,5.11,0.64c0.06-0.31,0.12-0.62,0.18-0.93
			C63.5,34.15,57.5,31.46,51.5,28.76z"/>
	</g>
	<g>
		<path class="st0" d="M45.36,305.11c-3.03-0.32-6.15-0.28-9.06-1.05c-4.67-1.23-6.25-4.45-3.54-8.32
			c2.77-3.96,6.14-8.06,10.21-10.43c8.79-5.12,18.15-9.28,27.38-13.63c5.04-2.38,7.67-1.74,9.92,3.38c2.3,5.23,3.65,10.92,5,16.51
			c0.27,1.13-0.98,3.54-2.07,3.96C71.01,300.28,58.8,305.06,45.36,305.11z M56.55,297.95c6.51-2.29,9.39-6.91,7.93-12.11
			c-0.76-2.71-2.98-3.9-5.95-3.18C64.87,286.98,64.86,287.05,56.55,297.95z"/>
	</g>
	<g>
		<path class="st0" d="M529.41,68.22c-0.99-11.74-5.56-21.25-16.56-27.85c2.92-1.47,5.26-2.73,7.66-3.84
			c8.75-4.03,17.82-7.17,27.3-8.94c2.68-0.5,5.44-0.68,8.17-0.78c5.55-0.2,8.47,3.34,6.88,8.75c-1.45,4.91-4.59,8.84-7.89,12.79
			c-6.85,8.18-16.24,12.98-24.38,19.43C530.3,68.01,529.86,68.06,529.41,68.22z M527.01,39.52c3.5,4.66,16.56,5.26,19.55,0.74
			C539.76,42.31,533.31,42.98,527.01,39.52z M539.98,49.76c-0.02-0.34-0.03-0.67-0.05-1.01c-1.98,0.09-3.95,0.18-5.93,0.27
			c0.02,0.34,0.03,0.68,0.05,1.01C536.03,49.94,538.01,49.85,539.98,49.76z"/>
	</g>
	<g>
		<path class="st0" d="M346.6,398.44c-2.74-1.45-5.24-2.73-7.71-4.08c-10.43-5.67-21.98-7.17-33.43-9.05
			c-15.07-2.48-30.39-3.65-45.03-8.48c-1.6-0.53-3.41-0.81-4.71-1.76c-1.33-0.98-3.07-2.67-3.03-4c0.21-6.79,0.94-13.55,1.87-20.42
			c4.74,8.37,11.51,14.32,20.15,17.72c6.15,2.42,12.68,3.99,19.12,5.56c16.52,4.03,32.81,8.7,48.33,15.75
			C346.86,391.81,347.78,393.6,346.6,398.44z"/>
	</g>
	<g>
		<path class="st0" d="M222.89,35.68c0.82-0.33,1.62-0.79,2.47-0.96c12.08-2.51,24.15-5.06,36.25-7.41c2.4-0.47,3.75-1.52,4.49-3.77
			c1.72-5.24,3.52-10.57,7.83-14.25c2.91-2.48,6.23-4.86,9.78-6.13c6.45-2.3,13.66,2.55,13.83,9.43c0.13,5.52-0.86,11.11-1.82,16.58
			c-0.54,3.05-4.31,5.11-8.04,4.83c-5.68-0.43-11.35-1-17-1.72c-1.73-0.22-3.79-0.67-4.98-1.78c-2.25-2.11-4.56-2.2-7.27-1.61
			c-10.72,2.31-21.45,4.57-32.18,6.84c-1.05,0.22-2.1,0.46-3.16,0.7C223.03,36.17,222.96,35.93,222.89,35.68z M283.55,25.91
			c0.11-0.29,0.21-0.57,0.32-0.86c-2.58-1.13-5.16-2.26-7.75-3.39C277.81,24.78,280.34,26.07,283.55,25.91z"/>
	</g>
	<g>
		<path class="st0" d="M552.6,307.39c-2.16-0.35-3.87-0.18-3.6,2.74c0.05,0.52-0.31,1.21-0.7,1.62c-2.86,3.08-10.5,4.29-15.11,2.22
			c3.81-0.29,7.27-0.56,10.74-0.82c-0.01-0.48-0.03-0.96-0.04-1.44c-0.93-0.06-1.87-0.25-2.78-0.16c-5.32,0.52-10-0.8-13.96-4.52
			c-0.74-0.7-1.75-1.54-2.66-1.56c-3.43-0.07-4.47-2.33-5.08-5.05c-0.55-2.47-1.07-4.95-1.41-7.45c-0.16-1.13,0.12-2.33,0.24-4.01
			c1.13,3.14,2.02,5.62,3.16,8.82c0.4-1.29,0.81-1.9,0.72-2.41c-0.83-4.34,1.98-7.13,4.38-9.96c1.1-1.3,2.74-2.45,4.36-2.94
			c10.2-3.1,21.73,4.31,23.26,14.83c0.51,3.49,1.52,7.11-1.5,10.1L552.6,307.39z"/>
	</g>
	<g>
		<path class="st0" d="M473.94,437.59c-0.29,1.67-0.14,3.59-0.94,4.96c-2.65,4.54-6.85,7.41-11.61,9.39
			c-11.58,4.84-23.16,9.7-34.84,14.3c-10.99,4.33-21.09,10.1-30.39,17.35c-3.42,2.67-5.02,2.11-5.35-2.31
			c-0.21-2.78,0.52-5.63,0.83-8.45c0.34-0.01,0.68-0.02,1.02-0.02c0.42,0.64,0.84,1.29,1.4,2.15c0.12-0.57,0.25-0.86,0.24-1.15
			c-0.2-5.62,4.36-13.6,9.51-15.45c2.34-0.84,5.17-0.39,7.78-0.37c11.99,0.11,24.01-0.64,35.19-4.93
			c8.55-3.28,16.86-7.64,23.59-14.27c0.65-0.64,1.45-1.11,2.18-1.67C473.02,437.28,473.48,437.43,473.94,437.59z"/>
	</g>
	<g>
		<path class="st0" d="M348.12,411.61c-15.9-9.02-32.38-8.71-49.14-7.78c-12.41,0.69-24.87,0.31-37.31,0.36
			c-0.93,0-1.87-0.28-2.79-0.53c-7.99-2.11-10.19-7.08-6.49-14.93c0.45,0.07,1.03,0.01,1.43,0.26c6.59,4.14,14.05,5.09,21.52,5.65
			c9.77,0.73,19.58,0.89,29.36,1.52c7.98,0.51,15.98,1.06,23.9,2.12c6.73,0.9,12.73,3.84,17.4,8.92
			C347.04,408.37,347.43,410.13,348.12,411.61z"/>
	</g>
	<g>
		<path class="st0" d="M392.27,410.97c-0.78-2.11-1.23-3.35-1.83-4.97c-0.21,0.69-0.41,0.98-0.35,1.21c1.4,5.89-1.12,5.92-5.66,4.64
			c-3.58-1.01-6.98-2.65-9.24-3.54c0.29-0.73,0.57-1.73,1.07-2.61c3.24-5.73,8.25-9.6,14.04-12.32c12.1-5.69,24.37-11.05,36.5-16.67
			c6.06-2.8,11.98-5.89,18.1-8.91C430.38,385.59,409.6,395.72,392.27,410.97z"/>
	</g>
	<g>
		<path class="st0" d="M369.81,390.35c4.95-3.65,9.67-7.65,14.89-10.86c10.83-6.66,23.05-9.74,35.25-12.78
			c4.09-1.02,8.12-2.35,12.24-3.2c1.32-0.27,3.24,0.06,4.22,0.9c2.12,1.81,1.83,3.36-0.64,4.66c-3.27,1.71-6.63,3.26-10,4.75
			c-10.31,4.56-20.42,9.73-31.07,13.31c-5.89,1.98-9.56,6.54-14.74,9.08c-0.93,0.46-1.75,1.18-2.58,1.83
			c-2.18,1.68-3.41,1.01-3.97-1.53c-0.25-1.13-0.47-2.3-0.96-3.34c-0.37-0.79-1.14-1.39-1.73-2.08
			C370.42,390.83,370.11,390.59,369.81,390.35z"/>
	</g>
	<g>
		<path class="st0" d="M391.19,486.7c0,2.3,0,4.6,0,6.67c7.43-9.11,16.93-15.12,27.21-19.76c14.52-6.55,29.33-12.47,43.98-18.72
			c2.22-0.95,4.27-2.32,6.45-3.36c0.75-0.36,1.7-0.32,2.55-0.46c-0.16,0.96,0.02,2.28-0.54,2.8c-3.24,3-6.29,6.48-10.07,8.57
			c-9.31,5.14-18.94,9.73-28.54,14.33c-8,3.82-16.26,7.1-24.17,11.08c-4.01,2.01-7.56,4.97-11.22,7.63
			c-1.49,1.08-2.74,1.8-4.51,0.51c-1.8-1.31-3.4-2.57-2.74-5.14c0.35-1.38,0.65-2.77,0.97-4.16
			C390.77,486.68,390.98,486.69,391.19,486.7z"/>
	</g>
	<g>
		<path class="st0" d="M437.73,380.47c0.79,3.17,1.47,6.11,2.28,9.02c0.59,2.13,1.27,4.25,2.04,6.33c0.93,2.51,0.39,4.24-2.19,5.34
			c-13.19,5.61-26.77,9.7-41.12,10.95c-0.5,0.04-1.02-0.06-1.53-0.09c-0.17-0.29-0.35-0.57-0.52-0.86
			C410.19,401.06,423.69,390.97,437.73,380.47z"/>
	</g>
	<g>
		<path class="st0" d="M347.92,422.85c-2.04-0.81-3.59-1.43-5.14-2.04c-13.73-5.43-28.21-7.04-42.73-8.17
			c-9.99-0.77-20.02-0.83-30.02-1.42c-5.59-0.33-11.18-0.97-16.02-4.27c-0.57-0.39-1.06-0.89-2.16-1.82
			c3.98,0.71,7.22,1.76,10.47,1.78c14.23,0.07,28.47,0.08,42.69-0.34c10.4-0.31,20.73-0.32,30.66,3.07
			c3.63,1.24,7.01,3.38,10.28,5.45C348.6,416.75,348.82,419.47,347.92,422.85z"/>
	</g>
	<g>
		<path class="st0" d="M252.69,376.76c2.97,0.98,5.87,2.3,8.92,2.88c15.12,2.86,30.29,5.43,45.4,8.29
			c7.45,1.41,14.83,3.18,22.22,4.86c1.27,0.29,2.44,0.99,3.49,2.08c-0.68-0.07-1.36-0.16-2.04-0.22
			c-8.81-0.79-17.61-1.67-26.43-2.33c-12.61-0.95-25.26-1.5-37.84-2.72c-3.75-0.36-7.54-2.02-10.94-3.78
			C251.78,383.89,251.27,381.3,252.69,376.76z"/>
	</g>
	<g>
		<path class="st0" d="M216.19,478.75c-5.32-0.73-10.63-1.52-15.96-2.17c-10.58-1.29-21.04,0.49-31.52,1.49
			c-9.24,0.88-18.45,2.07-27.7,2.73c-6.99,0.51-13.59-1.45-19.73-4.77c-2.63-1.42-3.1-4.68-0.96-6.69c0.53-0.5,2.31-0.43,2.93,0.08
			c4.5,3.69,10,4.31,15.38,5.22c12.94,2.2,25.84,1.1,38.78-0.29c9.42-1.02,18.89-1.79,28.35-2.02c3.63-0.09,7.36,1.48,10.93,2.63
			c0.8,0.26,1.33,1.91,1.58,3.02c0.08,0.34-1.21,0.98-1.87,1.48C216.32,479.23,216.26,478.99,216.19,478.75z"/>
	</g>
	<g>
		<path class="st0" d="M118.14,145.62c11.43-1.2,21.98-3.59,32.26-7.17c2.41-0.84,4.86,0.42,5.95,2.72c1.2,2.52,0.51,4.15-1.99,5.27
			c-3.65,1.64-7.18,3.57-10.9,5.03c-3.84,1.51-4.31,1.06-4.62-3.03c-0.04-0.51-0.13-1.02-0.26-2.05c-2.1,2.53-0.5,7.4-5.4,7.18
			c-3.25-0.15-6.54,0.19-9.74-0.25C119.21,152.74,119.4,148.82,118.14,145.62z"/>
	</g>
	<g>
		<path class="st0" d="M447.79,368.85c0.64,1.36,1.1,2.17,1.41,3.03c1.83,5.03,3.55,10.09,5.46,15.09c0.84,2.19,0.52,3.87-1.33,5.3
			c-1.75,1.35-3.38,2.86-5.22,4.08c-1.98,1.32-3.67,0.88-4.42-1.53c-1.47-4.73-2.91-9.46-4.21-14.23c-0.25-0.9-0.14-2.28,0.41-2.95
			C442.28,374.74,444.88,372.04,447.79,368.85z"/>
	</g>
	<g>
		<path class="st0" d="M514.75,215.51c0.51-1.56,0.88-2.95,1.41-4.29c3.25-8.29,5.08-16.74,2.99-25.64
			c-0.31-1.31-1.12-2.49-1.44-3.8c-0.27-1.14-0.47-3.32-0.19-3.4c1.76-0.54,3.86-1.1,4.98,1.13c0.89,1.78,1.85,3.65,2.2,5.58
			c1.51,8.51,3.26,17.06,0.34,25.63C523.23,215.98,520.91,217.14,514.75,215.51z"/>
	</g>
	<g>
		<path class="st0" d="M162.58,481.33c1.82-0.21,3.65-0.42,5.47-0.62c14.25-1.59,28.5-3.12,42.79-0.3c0.21,0.04,0.42,0.06,0.63,0.09
			c7.13,1.06,7.94,2.7,4.56,9.73c-0.81-0.39-1.59-0.87-2.44-1.16c-4.66-1.6-9.23-4.01-14.01-4.56c-10.76-1.24-21.62-1.55-32.44-2.23
			c-1.51-0.1-3.03-0.17-4.55-0.26C162.58,481.78,162.58,481.56,162.58,481.33z"/>
	</g>
	<g>
		<path class="st0" d="M157.38,338.85c3.21,2.52,4.29,5.27,3.7,9.06c-0.95,6.12-1.38,12.32-2.04,18.49
			c-0.33,3.13-1.28,3.67-4.12,2.39c-6.11-2.75-6.69-3.66-4.77-9.99c1.89-6.23,4.17-12.35,6.3-18.51
			C156.6,339.84,156.98,339.45,157.38,338.85z"/>
	</g>
	<g>
		<path class="st0" d="M511.56,79.69c-3.02-12.5-10.81-21.19-21.33-27.93c2.32-2.4,4.53-3.24,7.23-1.49
			c7.82,5.07,12.75,12.4,16.27,20.82c0.41,0.97,0.65,2.01,1.02,2.99C515.76,76.77,514.97,78.56,511.56,79.69z"/>
	</g>
	<g>
		<path class="st0" d="M399.1,457.77c-2.07,2.26-3.65,3.97-5.51,6c-0.87-2.55-1.58-4.62-2.28-6.68c-0.35,0.05-0.7,0.11-1.05,0.16
			c-0.38,5.03,3.78,10.75-2.24,15.46c-0.7-2.95-1.36-5.55-1.92-8.17c-0.53-2.48-0.84-5-1.47-7.45c-0.3-1.16-0.81-2.67-1.71-3.21
			c-7.07-4.23-7.4-10.75-5.62-17.51c1.18-4.47,3.6-8.61,5.46-12.9c0.42,0.18,0.83,0.37,1.25,0.55c-0.58,1.13-1.25,2.23-1.72,3.41
			c-1.41,3.51-3.15,6.96-4.02,10.6c-1.97,8.2,1.73,14.31,9.85,16.84C391.41,455.91,394.8,456.65,399.1,457.77z"/>
	</g>
	<g>
		<path class="st0" d="M517.65,248.67c-0.86,5.81-1.62,11.11-2.45,16.39c-0.14,0.91-0.4,1.98-0.99,2.61
			c-0.62,0.66-1.7,0.88-2.58,1.29c-0.23-0.83-0.74-1.7-0.63-2.49c0.25-1.76,0.82-3.47,1.24-5.21c1.91-7.9,1.69-15.84,0.41-23.8
			c-0.1-0.62-0.36-1.29-0.21-1.86c0.16-0.61,0.71-1.13,1.08-1.69c0.5,0.42,1.33,0.78,1.44,1.28
			C515.95,239.78,516.81,244.39,517.65,248.67z"/>
	</g>
	<g>
		<path class="st0" d="M202.21,137.93c1.21,0.08,2.41,0.19,3.62,0.23c9.74,0.33,19.42-0.07,28.9-2.65c1.49-0.41,3.06-0.85,3.39,1.4
			c0.28,1.88-0.17,3.5-2.4,3.68c-3.13,0.25-6.29,0.58-9.41,0.42c-6.74-0.36-13.47-1-20.2-1.55c-1.32-0.11-2.63-0.33-3.94-0.49
			C202.18,138.62,202.2,138.28,202.21,137.93z"/>
	</g>
	<g>
		<path class="st0" d="M263.78,38.6c9.78,1.99,19.1,3.89,29.17,5.95C285.61,48.29,267.95,44.51,263.78,38.6z"/>
	</g>
	<g>
		<path class="st0" d="M151.5,58.37c9.64-3.41,19.24-6.97,28.94-10.2c8.81-2.92,17.74-5.49,26.62-8.19c1.28-0.39,2.6-0.63,4.14-0.26
			c-0.78,0.35-1.53,0.79-2.33,1.05c-17.67,5.68-35.35,11.36-53.04,16.98C154.46,58.18,152.95,58.17,151.5,58.37L151.5,58.37z"/>
	</g>
	<g>
		<path class="st0" d="M260.25,41.41c9.59,6.57,20.15,9.2,31.76,7.62c0.05,0.33,0.09,0.65,0.14,0.98c-0.47,0.27-0.96,0.81-1.41,0.78
			c-7.03-0.45-14.12-0.6-21.07-1.64c-2.91-0.43-5.62-2.65-8.26-4.3c-0.84-0.53-1.2-1.83-1.78-2.79
			C259.83,41.85,260.04,41.63,260.25,41.41z"/>
	</g>
	<g>
		<path class="st0" d="M515.32,200.04c-1.66-6.74-3.43-13.86-5.22-21.1C516.05,180.1,518.85,193.03,515.32,200.04z"/>
	</g>
	<g>
		<path class="st0" d="M151.31,132c-0.57,4.72-4.59,4.51-7.85,5.34c-0.82,0.21-1.82-0.27-2.74-0.43c0.29-1.05,0.26-2.45,0.94-3.09
			c2.06-1.95,4.33-3.75,7.54-2.24C149.92,131.92,150.81,131.91,151.31,132z"/>
	</g>
	<g>
		<path class="st0" d="M99.57,63.09c-0.29,1.35-0.12,3.23-0.96,3.94c-2.5,2.13-5.1,4.54-8.71,4.18c-0.24-0.38-0.49-0.77-0.73-1.15
			c3.04-2.56,6.07-5.13,9.11-7.69C98.71,62.61,99.14,62.85,99.57,63.09z"/>
	</g>
	<g>
		<path class="st0" d="M117.99,141.61c6.68-1.81,13.2-3.57,19.71-5.33c0.14,0.18,0.29,0.35,0.43,0.53c-0.69,0.77-1.25,1.97-2.1,2.25
			C130.22,140.98,124.36,142.75,117.99,141.61z"/>
	</g>
	<g>
		<path class="st0" d="M198.11,136.39c-8.05,0-16.1,0-24.15,0c0.01-0.22,0.01-0.44,0.02-0.66c8.05,0,16.1,0,24.15,0
			C198.13,135.95,198.12,136.17,198.11,136.39z"/>
	</g>
	<g>
		<path class="st0" d="M440.46,366.29c-1.43-4.2,0.29-6.86,3.79-6.82c0.44,0.01,1.39,1.94,1.2,2.16
			C444,363.23,442.31,364.62,440.46,366.29z"/>
	</g>
	<g>
		<path class="st0" d="M215.67,146.25c-4.23,1.8-8.49,3.02-12.88,0C207.08,146.25,211.37,146.25,215.67,146.25z"/>
	</g>
	<g>
		<path class="st0" d="M139.46,62.8c-5.91,1.69-11.83,3.38-17.74,5.07C127.63,66.18,133.55,64.49,139.46,62.8L139.46,62.8z"/>
	</g>
	<g>
		<path class="st0" d="M160.96,337.71c0-2.58,0-5.17,0-7.99c2.81,1.79,2.89,2.91,0.86,7.93
			C161.53,337.68,161.24,337.69,160.96,337.71z"/>
	</g>
	<g>
		<path class="st0" d="M368.87,295.38c0.2,0.2,0.4,0.4,0.61,0.61c-1.4,4-2.96,7.99-0.4,12.78
			C365.39,305.78,365.57,300.38,368.87,295.38z"/>
	</g>
	<g>
		<path class="st0" d="M212.35,142.76c-3.41,1.2-6.89,1.69-10.15-0.16c0.03-0.29,0.05-0.59,0.08-0.88
			C205.63,142.07,208.99,142.42,212.35,142.76z"/>
	</g>
	<g>
		<path class="st0" d="M518.4,285.41c0.46-3.78,0.92-7.57,1.38-11.35c0.35,0.04,0.71,0.07,1.06,0.11
			c-0.44,3.79-0.88,7.58-1.32,11.37C519.15,285.49,518.78,285.45,518.4,285.41z"/>
	</g>
	<g>
		<path class="st0" d="M139.46,62.8c4.01-1.48,8.03-2.96,12.04-4.44c0,0,0,0,0,0C147.49,59.85,143.47,61.32,139.46,62.8
			C139.46,62.8,139.46,62.8,139.46,62.8z"/>
	</g>
	<g>
		<path class="st0" d="M289.1,39.68c1.37,0.15,2.74,0.27,4.1,0.52c0.12,0.02,0.09,0.88,0.13,1.35c-1.43-0.08-2.86-0.16-4.29-0.24
			C289.06,40.77,289.08,40.22,289.1,39.68z"/>
	</g>
	<g>
		<path class="st0" d="M121.62,68.52c-3.23,1.04-6.45,2.08-9.68,3.12c-0.11-0.34-0.22-0.69-0.33-1.03
			c3.34-1.01,6.67-2.02,10.01-3.03C121.63,67.9,121.62,68.21,121.62,68.52z"/>
	</g>
	<g>
		<path class="st0" d="M87.12,72.78c-1.47,0.46-2.95,0.92-4.42,1.38c-0.15-0.39-0.3-0.78-0.44-1.16c1.46-0.54,2.93-1.07,4.39-1.61
			C86.81,71.85,86.96,72.32,87.12,72.78z"/>
	</g>
	<g>
		<path class="st0" d="M156.35,434.63c-4.93,0-9.85,0-14.78,0c0-0.1,0-0.2,0-0.3c4.94,0,9.88,0,14.83,0
			C156.38,434.44,156.37,434.54,156.35,434.63z"/>
	</g>
	<g>
		<path class="st0" d="M460.65,425.66c-3.01-0.2-5.1-0.33-7.29-0.47C454.53,423.34,454.53,423.34,460.65,425.66z"/>
	</g>
	<g>
		<path class="st0" d="M158.13,333.69c-1.31-3.33-0.37-5.66,1.79-8.27C159.28,328.36,158.76,330.78,158.13,333.69z"/>
	</g>
	<g>
		<path class="st0" d="M169.53,135.54c-2.64-0.35-5.29-0.7-7.93-1.05c0.03-0.27,0.07-0.54,0.1-0.81c2.61,0.32,5.22,0.64,7.83,0.96
			C169.53,134.95,169.53,135.25,169.53,135.54z"/>
	</g>
	<g>
		<path class="st0" d="M521.28,234.02c-0.42,2.11-0.84,4.22-1.26,6.32c-0.33-0.06-0.67-0.11-1-0.17c0.39-2.11,0.78-4.22,1.17-6.33
			C520.56,233.9,520.92,233.96,521.28,234.02z"/>
	</g>
	<g>
		<path class="st0" d="M220.09,37.34c-1.73,0.55-3.45,1.09-5.18,1.64c-0.1-0.3-0.2-0.61-0.29-0.91c1.72-0.56,3.44-1.12,5.17-1.68
			C219.88,36.71,219.99,37.02,220.09,37.34z"/>
	</g>
</g>
</svg>
