<?xml version="1.0" encoding="utf-8"?>
<!-- Generator: Adobe Illustrator 27.0.0, SVG Export Plug-In . SVG Version: 6.00 Build 0)  -->
<svg version="1.1" id="Layer_1" xmlns="http://www.w3.org/2000/svg" xmlns:xlink="http://www.w3.org/1999/xlink" x="0px" y="0px"
	 viewBox="0 0 601.89 469.57" style="enable-background:new 0 0 601.89 469.57;" xml:space="preserve">
<style type="text/css">
	.st0{clip-path:url(#SVGID_00000143612979630606502020000001912745606879320966_);}
	.st1{clip-path:url(#SVGID_00000085971227147459338200000007653447027830141321_);fill:#231F20;}
	.st2{clip-path:url(#SVGID_00000085971227147459338200000007653447027830141321_);fill:#580000;}
	.st3{clip-path:url(#SVGID_00000085971227147459338200000007653447027830141321_);fill:#89261C;}
	.st4{clip-path:url(#SVGID_00000085971227147459338200000007653447027830141321_);fill:#6CE4E7;}
	.st5{fill:#BC2C3D;}
	.st6{font-family:'LEMONMILK-Regular';}
	.st7{font-size:14.7155px;}
	.st8{clip-path:url(#SVGID_00000121964317439207002890000009193939889209024145_);}
	.st9{letter-spacing:-1;}
	.st10{clip-path:url(#SVGID_00000127741238865767522550000009729923057515410312_);}
	
		.st11{clip-path:url(#SVGID_00000127741238865767522550000009729923057515410312_);fill:none;stroke:#580000;stroke-width:3;stroke-miterlimit:10;}
</style>
<g id="Artwork_7_00000105427982922202659030000011585684744162252719_">
	<g>
		<defs>
			<rect id="SVGID_1_" x="5.9" y="4.83" width="590.09" height="459.91"/>
		</defs>
		<clipPath id="SVGID_00000170991861825863179860000000510110148818120356_">
			<use xlink:href="#SVGID_1_"  style="overflow:visible;"/>
		</clipPath>
		<g style="clip-path:url(#SVGID_00000170991861825863179860000000510110148818120356_);">
			<defs>
				<rect id="SVGID_00000003801525422255330360000007865737173889972387_" x="5.9" y="4.83" width="590.09" height="459.91"/>
			</defs>
			<clipPath id="SVGID_00000089561392101821500530000017870582096185786518_">
				<use xlink:href="#SVGID_00000003801525422255330360000007865737173889972387_"  style="overflow:visible;"/>
			</clipPath>
			<path style="clip-path:url(#SVGID_00000089561392101821500530000017870582096185786518_);fill:#231F20;" d="M286.34,79.41
				c7.87-0.21,15.68,0.47,23.45,1.63c12.38,1.85,24.34,5.24,35.89,10.05c13.53,5.64,26,13.07,37.42,22.26
				c15.27,12.29,27.75,26.98,37.4,44.02c8.58,15.15,14.38,31.33,17.54,48.46c2.24,12.14,2.9,24.39,2.16,36.66
				c-1.08,17.87-5.24,35.05-12.32,51.54c-6.35,14.79-14.83,28.23-25.38,40.33c-11.41,13.09-24.73,23.91-39.86,32.5
				c-13.93,7.9-28.73,13.51-44.36,16.89c-6.85,1.48-13.81,2.4-20.83,2.92c-5.58,0.41-11.15,0.49-16.71,0.28
				c-12.82-0.48-25.4-2.46-37.73-6.06c-13.45-3.93-26.11-9.63-38.01-17.02c-0.37-0.23-0.68-0.54-1.03-0.81
				c6.4-10.15,12.78-20.3,19.19-30.44c4.92-7.79,9.8-15.62,14.82-23.35c2.37-3.64,4.45-7.48,7.17-10.9
				c0.51,0.24,1.05,0.44,1.53,0.72c16.25,9.68,33.74,13.04,52.38,9.9c17.58-2.97,32.54-10.98,44.44-24.32
				c14.64-16.4,21.19-35.62,19.61-57.59c-0.86-12.03-4.49-23.17-10.68-33.48c-8.68-14.46-20.86-24.96-36.44-31.49
				c-9.51-3.99-19.45-5.9-29.76-5.97c0.01-24.76,0.01-49.52,0.02-74.28C286.27,81.05,286.32,80.23,286.34,79.41"/>
			<path style="clip-path:url(#SVGID_00000089561392101821500530000017870582096185786518_);fill:#580000;" d="M196,357.71
				c-3.91-2.38-7.34-5.4-10.75-8.41c-26.18-23.03-42.81-51.65-49.92-85.74c-3.19-15.29-3.85-30.75-2.18-46.29
				c3.58-33.41,16.63-62.69,39.16-87.57c21.9-24.18,49.06-39.63,80.9-46.84c7.74-1.75,15.59-2.73,23.49-3.3
				c0.49,7.16,1.08,14.32,1.45,21.48c0.32,6.23,0.76,12.45,1.14,18.68c0.38,6.1,0.74,12.2,1.15,18.3c0.41,6.1,0.63,12.2,1.2,18.29
				c-0.37,0.06-0.74,0.15-1.11,0.18c-15.41,1.1-29.18,6.51-41.35,15.92c-13.12,10.14-22,23.27-26.71,39.15
				c-3.05,10.32-3.88,20.83-2.44,31.53c1.83,13.58,6.87,25.81,15.1,36.75c4.49,5.96,9.9,10.98,15.78,15.51
				c-0.01,0.48-0.31,0.79-0.58,1.16c-4.87,6.66-9.73,13.33-14.58,20c-6.97,9.58-13.95,19.14-20.88,28.74
				C201.91,349.39,198.7,353.37,196,357.71"/>
			<path style="clip-path:url(#SVGID_00000089561392101821500530000017870582096185786518_);fill:#89261C;" d="M196,357.71
				c2.7-4.34,5.9-8.32,8.88-12.45c6.93-9.6,13.91-19.17,20.88-28.74c4.85-6.67,9.71-13.34,14.58-20c0.26-0.36,0.57-0.68,0.58-1.16
				c1.42,1,3.07,1.67,4.24,3.03c-2.72,3.42-4.8,7.25-7.17,10.9c-5.03,7.73-9.9,15.55-14.82,23.35
				c-6.4,10.14-12.79,20.29-19.19,30.44C201.15,361.54,198.48,359.77,196,357.71"/>
			<path style="clip-path:url(#SVGID_00000089561392101821500530000017870582096185786518_);fill:#89261C;" d="M281.66,156.31
				c-0.58-6.09-0.8-12.19-1.21-18.29c-0.41-6.1-0.77-12.2-1.15-18.3c-0.39-6.23-0.82-12.45-1.15-18.68
				c-0.37-7.17-0.96-14.32-1.45-21.48c2.41-0.14,4.83-0.27,7.24-0.41c0.11,0.01,0.23,0.02,0.34,0.03c0.68,0.07,1.37,0.15,2.06,0.22
				c-0.02,0.82-0.07,1.64-0.07,2.47c-0.01,24.76-0.01,49.52-0.02,74.28C284.72,156.21,283.19,156.26,281.66,156.31"/>
			<path style="clip-path:url(#SVGID_00000089561392101821500530000017870582096185786518_);fill:#6CE4E7;" d="M284.28,79.19
				c-0.11-0.01-0.23-0.02-0.34-0.03C284.06,79.17,284.17,79.18,284.28,79.19"/>
		</g>
		<g style="clip-path:url(#SVGID_00000170991861825863179860000000510110148818120356_);">
			<text transform="matrix(1 0 0 1 483.3943 323.4537)" class="st5 st6 st7">FiREARM</text>
		</g>
		<g style="clip-path:url(#SVGID_00000170991861825863179860000000510110148818120356_);">
			<defs>
				<rect id="SVGID_00000070111811322257590060000004277018031364262556_" x="5.9" y="4.83" width="590.09" height="459.91"/>
			</defs>
			<clipPath id="SVGID_00000104707291363974999180000015036856721950302382_">
				<use xlink:href="#SVGID_00000070111811322257590060000004277018031364262556_"  style="overflow:visible;"/>
			</clipPath>
			<g style="clip-path:url(#SVGID_00000104707291363974999180000015036856721950302382_);">
				<text transform="matrix(1 0 0 1 483.3943 341.1119)" class="st5 st6 st7">SUiCiDES (59%)</text>
			</g>
			<g style="clip-path:url(#SVGID_00000104707291363974999180000015036856721950302382_);">
				<text transform="matrix(1 0 0 1 5.9056 110.3287)" class="st5 st6 st7">FiREARM</text>
			</g>
			<g style="clip-path:url(#SVGID_00000104707291363974999180000015036856721950302382_);">
				<text transform="matrix(1 0 0 1 5.9056 127.9874)" class="st5 st6 st7">HOMiCiDE(39%)</text>
			</g>
			<g style="clip-path:url(#SVGID_00000104707291363974999180000015036856721950302382_);">
				<text transform="matrix(1 0 0 1 350.4549 17.9742)"><tspan x="0" y="0" class="st5 st6 st7">SHO</tspan><tspan x="33" y="0" class="st5 st6 st7">O</tspan><tspan x="45.51" y="0" class="st5 st6 st7">TiNG </tspan><tspan x="86.79" y="0" class="st5 st6 st7 st9">B</tspan><tspan x="94.7" y="0" class="st5 st6 st7">Y</tspan></text>
			</g>
		</g>
		<g style="clip-path:url(#SVGID_00000170991861825863179860000000510110148818120356_);">
			<text transform="matrix(1 0 0 1 350.4481 35.6383)" class="st5 st6 st7">POLiCE(01%)</text>
		</g>
		<g style="clip-path:url(#SVGID_00000170991861825863179860000000510110148818120356_);">
			<text transform="matrix(1 0 0 1 83.9949 443.1397)" class="st5 st6 st7">UNiNTENTiONAL FiREARM</text>
		</g>
		<g style="clip-path:url(#SVGID_00000170991861825863179860000000510110148818120356_);">
			<defs>
				<rect id="SVGID_00000181075871089031734380000013184894173087193774_" x="5.9" y="4.83" width="590.09" height="459.91"/>
			</defs>
			<clipPath id="SVGID_00000014594904272515000830000017833271906914264743_">
				<use xlink:href="#SVGID_00000181075871089031734380000013184894173087193774_"  style="overflow:visible;"/>
			</clipPath>
			<g style="clip-path:url(#SVGID_00000014594904272515000830000017833271906914264743_);">
				<text transform="matrix(1 0 0 1 84.0018 460.7994)"><tspan x="0" y="0" class="st5 st6 st7">DE</tspan><tspan x="19.72" y="0" class="st5 st6 st7 st9">A</tspan><tspan x="29.63" y="0" class="st5 st6 st7">TH (01%)</tspan></text>
			</g>
			
				<line style="clip-path:url(#SVGID_00000014594904272515000830000017833271906914264743_);fill:none;stroke:#580000;stroke-width:3;stroke-miterlimit:10;" x1="141.33" y1="426.16" x2="198" y2="369.49"/>
			
				<line style="clip-path:url(#SVGID_00000014594904272515000830000017833271906914264743_);fill:none;stroke:#580000;stroke-width:3;stroke-miterlimit:10;" x1="284.43" y1="71.97" x2="341.09" y2="15.31"/>
			
				<line style="clip-path:url(#SVGID_00000014594904272515000830000017833271906914264743_);fill:none;stroke:#580000;stroke-width:3;stroke-miterlimit:10;" x1="511.59" y1="300.32" x2="454.93" y2="243.65"/>
			
				<line style="clip-path:url(#SVGID_00000014594904272515000830000017833271906914264743_);fill:none;stroke:#580000;stroke-width:3;stroke-miterlimit:10;" x1="126.96" y1="199.34" x2="70.29" y2="142.67"/>
		</g>
	</g>
</g>
</svg>
