<?xml version="1.0" encoding="UTF-8"?>
<svg id="Layer_1" data-name="Layer 1" xmlns="http://www.w3.org/2000/svg" xmlns:xlink="http://www.w3.org/1999/xlink" viewBox="0 0 169 660.5">
  <defs>
    <style>
      .cls-1 {
        clip-path: url(#clippath-1);
      }

      .cls-2 {
        opacity: .1;
      }

      .cls-3 {
        clip-path: url(#clippath);
      }

      .cls-4 {
        fill: none;
      }

      .cls-5 {
        fill: #231f20;
      }
    </style>
    <clipPath id="clippath">
      <rect class="cls-4" width="169" height="661"/>
    </clipPath>
    <clipPath id="clippath-1">
      <rect class="cls-4" x="-52" width="253" height="661"/>
    </clipPath>
  </defs>
  <g class="cls-3">
    <g class="cls-1">
      <g class="cls-2">
        <g>
          <path class="cls-5" d="M107.62,173c-8.32-1.75-13.33-6.98-15.62-14.98-1.35-4.7-1.31-9.49-.43-14.27,1.46-7.9,4.85-15,9.25-21.65,.27-.41,1.13-.8,1.55-.68,11.39,3.38,22.76,6.83,34.14,10.27,.05,.02,.08,.1,.26,.34-1.23,11.92-3.47,23.63-11.69,33.28-3.45,4.05-7.87,6.46-12.99,7.68h-4.47Z"/>
          <path class="cls-5" d="M73.34,21.59c-.33,17.26-1.32,28.87-5.16,40.09-.81,2.38-2.19,3.64-4.63,4.21-10.65,2.51-21.27,5.17-31.93,7.67-.8,.19-2.03-.1-2.64-.63-3.49-3.06-5.6-7.11-7.39-11.27-6.15-14.25-10.14-29.13-11.38-44.58-.95-11.78,.08-23.54,4.02-34.8,2.72-7.75,7.46-13.89,15.78-16.15,10.9-2.96,20.15-.1,27.53,8.54,4.54,5.32,7.65,11.46,9.87,18.03,3.77,11.15,6.14,22.56,5.92,28.89Z"/>
          <path class="cls-5" d="M133.27,13.55c13.03,.48,20.27,8.56,23.45,20.94,3.67,14.32,4.26,28.82,1.15,43.39-2.6,12.18-5.53,24.26-11.34,35.38-1.51,2.89-3.68,5.46-5.74,8.03-.47,.59-1.82,.92-2.62,.73-10.85-2.56-21.67-5.24-32.5-7.86-2.02-.49-3.3-1.6-3.92-3.63-7.45-24.39-7.38-48.61,1.79-72.56,3.09-8.06,7.52-15.28,14.77-20.39,4.5-3.17,9.51-4.37,14.95-4.03Z"/>
          <path class="cls-5" d="M32.59,83.46c12.25-3.66,23.96-7.15,35.77-10.68,5.87,8.92,10.36,18.35,10.39,29.34,.01,5.61-1.36,10.89-4.88,15.38-6.66,8.49-17.83,9.42-26.21,2.32-6.25-5.29-9.69-12.3-11.77-19.96-1.45-5.32-2.2-10.82-3.29-16.4Z"/>
        </g>
        <g>
          <path class="cls-5" d="M118.62,369c-8.32-1.75-13.33-6.98-15.62-14.98-1.35-4.7-1.31-9.49-.43-14.27,1.46-7.9,4.85-15,9.25-21.65,.27-.41,1.13-.8,1.55-.68,11.39,3.38,22.76,6.83,34.14,10.27,.05,.02,.08,.1,.26,.34-1.23,11.92-3.47,23.63-11.69,33.28-3.45,4.05-7.87,6.46-12.99,7.68h-4.47Z"/>
          <path class="cls-5" d="M84.34,217.59c-.33,17.26-1.32,28.87-5.16,40.09-.81,2.38-2.19,3.64-4.63,4.21-10.65,2.51-21.27,5.17-31.93,7.67-.8,.19-2.03-.1-2.64-.63-3.49-3.06-5.6-7.11-7.39-11.27-6.15-14.25-10.14-29.13-11.38-44.58-.95-11.78,.08-23.54,4.02-34.8,2.72-7.75,7.46-13.89,15.78-16.15,10.9-2.96,20.15-.1,27.53,8.54,4.54,5.32,7.65,11.46,9.87,18.03,3.77,11.15,6.14,22.56,5.92,28.89Z"/>
          <path class="cls-5" d="M144.27,209.55c13.03,.48,20.27,8.56,23.45,20.94,3.67,14.32,4.26,28.82,1.15,43.39-2.6,12.18-5.53,24.26-11.34,35.38-1.51,2.89-3.68,5.46-5.74,8.03-.47,.59-1.82,.92-2.62,.73-10.85-2.56-21.67-5.24-32.5-7.86-2.02-.49-3.3-1.6-3.92-3.63-7.45-24.39-7.38-48.61,1.79-72.56,3.09-8.06,7.52-15.28,14.77-20.39,4.5-3.17,9.51-4.37,14.95-4.03Z"/>
          <path class="cls-5" d="M43.59,279.46c12.25-3.66,23.96-7.15,35.77-10.68,5.87,8.92,10.36,18.35,10.39,29.34,.01,5.61-1.36,10.89-4.88,15.38-6.66,8.49-17.83,9.42-26.21,2.32-6.25-5.29-9.69-12.3-11.77-19.96-1.45-5.32-2.2-10.82-3.29-16.4Z"/>
        </g>
        <g>
          <path class="cls-5" d="M112.62,567c-8.32-1.75-13.33-6.98-15.62-14.98-1.35-4.7-1.31-9.49-.43-14.27,1.46-7.9,4.85-15,9.25-21.65,.27-.41,1.13-.8,1.55-.68,11.39,3.38,22.76,6.83,34.14,10.27,.05,.02,.08,.1,.26,.34-1.23,11.92-3.47,23.63-11.69,33.28-3.45,4.05-7.87,6.46-12.99,7.68h-4.47Z"/>
          <path class="cls-5" d="M78.34,415.59c-.33,17.26-1.32,28.87-5.16,40.09-.81,2.38-2.19,3.64-4.63,4.21-10.65,2.51-21.27,5.17-31.93,7.67-.8,.19-2.03-.1-2.64-.63-3.49-3.06-5.6-7.11-7.39-11.27-6.15-14.25-10.14-29.13-11.38-44.58-.95-11.78,.08-23.54,4.02-34.8,2.72-7.75,7.46-13.89,15.78-16.15,10.9-2.96,20.15-.1,27.53,8.54,4.54,5.32,7.65,11.46,9.87,18.03,3.77,11.15,6.14,22.56,5.92,28.89Z"/>
          <path class="cls-5" d="M138.27,407.55c13.03,.48,20.27,8.56,23.45,20.94,3.67,14.32,4.26,28.82,1.15,43.39-2.6,12.18-5.53,24.26-11.34,35.38-1.51,2.89-3.68,5.46-5.74,8.03-.47,.59-1.82,.92-2.62,.73-10.85-2.56-21.67-5.24-32.5-7.86-2.02-.49-3.3-1.6-3.92-3.63-7.45-24.39-7.38-48.61,1.79-72.56,3.09-8.06,7.52-15.28,14.77-20.39,4.5-3.17,9.51-4.37,14.95-4.03Z"/>
          <path class="cls-5" d="M37.59,477.46c12.25-3.66,23.96-7.15,35.77-10.68,5.87,8.92,10.36,18.35,10.39,29.34,.01,5.61-1.36,10.89-4.88,15.38-6.66,8.49-17.83,9.42-26.21,2.32-6.25-5.29-9.69-12.3-11.77-19.96-1.45-5.32-2.2-10.82-3.29-16.4Z"/>
        </g>
        <g>
          <path class="cls-5" d="M72.34,590.59c-.33,17.26-1.32,28.87-5.16,40.09-.81,2.38-2.19,3.64-4.63,4.21-10.65,2.51-21.27,5.17-31.93,7.67-.8,.19-2.03-.1-2.64-.63-3.49-3.06-5.6-7.11-7.39-11.27-6.15-14.25-10.14-29.13-11.38-44.58-.95-11.78,.08-23.54,4.02-34.8,2.72-7.75,7.46-13.89,15.78-16.15,10.9-2.96,20.15-.1,27.53,8.54,4.54,5.32,7.65,11.46,9.87,18.03,3.77,11.15,6.14,22.56,5.92,28.89Z"/>
          <path class="cls-5" d="M132.27,582.55c13.03,.48,20.27,8.56,23.45,20.94,3.67,14.32,4.26,28.82,1.15,43.39-2.6,12.18-5.53,24.26-11.34,35.38-1.51,2.89-3.68,5.46-5.74,8.03-.47,.59-1.82,.92-2.62,.73-10.85-2.56-21.67-5.24-32.5-7.86-2.02-.49-3.3-1.6-3.92-3.63-7.45-24.39-7.38-48.61,1.79-72.56,3.09-8.06,7.52-15.28,14.77-20.39,4.5-3.17,9.51-4.37,14.95-4.03Z"/>
          <path class="cls-5" d="M31.59,652.46c12.25-3.66,23.96-7.15,35.77-10.68,5.87,8.92,10.36,18.35,10.39,29.34,.01,5.61-1.36,10.89-4.88,15.38-6.66,8.49-17.83,9.42-26.21,2.32-6.25-5.29-9.69-12.3-11.77-19.96-1.45-5.32-2.2-10.82-3.29-16.4Z"/>
        </g>
      </g>
    </g>
  </g>
</svg>